<svg width="27" height="41" viewBox="0 0 27 41" fill="none" xmlns="http://www.w3.org/2000/svg">
<path fill-rule="evenodd" clip-rule="evenodd" d="M7.85231 23.8102C7.93082 23.7308 8.00229 23.6799 8.00229 23.552C8.00229 23.4881 7.97885 23.4241 7.93082 23.3767L6.46738 21.8974C6.3713 21.8003 6.21195 21.8003 6.11938 21.8974L0.899606 27.1749C0.803528 27.2721 0.803528 27.4331 0.899606 27.5267L2.36304 29.006C2.45912 29.1031 2.61847 29.1031 2.71105 29.006L7.85463 23.8067L7.85231 23.8102ZM24.6532 29.0155L26.1167 27.5363C26.1647 27.4877 26.1882 27.4237 26.1882 27.361C26.1882 27.297 26.1647 27.2331 26.1167 27.1857L20.8945 21.907C20.7984 21.8099 20.6391 21.8099 20.5465 21.907L19.0831 23.3863C19.035 23.4348 19.0116 23.4988 19.0116 23.5615C19.0116 23.6255 19.035 23.6895 19.0831 23.7368L24.3052 29.0155C24.4013 29.1127 24.5607 29.1127 24.6532 29.0155ZM6.94076 34.0644L5.95068 35.0652C5.79718 35.2204 5.7222 35.4229 5.7222 35.6266C5.7222 36.3325 6.57049 36.6784 7.05674 36.1881L8.52018 34.7088C9.00292 34.2208 8.67016 33.3598 7.96479 33.3598C7.76326 33.3598 7.56291 33.4356 7.4094 33.5907L6.93604 34.0692L6.94076 34.0644ZM6.36194 32.3601C6.51543 32.5153 6.59042 32.7178 6.59042 32.9215C6.59042 33.1252 6.51543 33.3278 6.36194 33.4829L5.37186 34.4837C5.21837 34.6389 5.018 34.7147 4.81647 34.7147C4.1111 34.7147 3.77836 33.8537 4.26108 33.3657L5.25116 32.3649C5.55462 32.0581 6.05494 32.0581 6.3584 32.3649L6.36194 32.3601ZM7.6344 36.7684L9.50325 34.8793C9.98599 34.3913 10.8378 34.7277 10.8378 35.4407C10.8378 35.6444 10.7628 35.8469 10.6093 36.0021L8.74047 37.8912C8.25772 38.3791 7.40592 38.0428 7.40592 37.3298C7.40592 37.126 7.48091 36.9235 7.6344 36.7684ZM9.31929 38.4727C9.15408 38.6397 9.00998 38.7581 9.00998 39.0305C9.00998 39.567 9.65206 39.8193 10.0153 39.4521L11.6826 37.7668C11.7963 37.6519 11.8537 37.5003 11.8537 37.3451C11.8537 36.811 11.2151 36.554 10.846 36.9235L9.31578 38.4703L9.31929 38.4727ZM11.1108 39.5161L10.5953 40.0372C9.71649 40.9255 8.19213 40.3037 8.19213 39.0305V38.9429C7.304 38.9488 6.58456 38.224 6.58456 37.3274V37.2362C5.66713 37.2883 4.89616 36.5576 4.89616 35.6231V35.5354C3.97873 35.5876 3.20776 34.8532 3.20776 33.9223C3.20776 33.5066 3.3636 33.0944 3.67527 32.7794L4.05606 32.3945C3.56396 31.8971 3.55808 31.5394 3.56162 31.0609C3.56162 30.8217 3.56162 30.5789 3.34251 30.355L2.85041 29.8576C2.47898 29.976 2.06186 29.8848 1.77364 29.5935L0.310203 28.1142C-0.103401 27.6961 -0.103401 27.0104 0.310203 26.5923L5.53237 21.3136C5.94598 20.8955 6.62438 20.8955 7.03798 21.3136L8.50142 22.7928C8.84003 23.1351 8.90683 23.6575 8.68186 24.072L9.11421 24.509C9.24895 24.6452 9.40244 24.7246 9.59461 24.7305L10.6773 24.7518C11.2057 24.4853 11.7505 24.1975 12.1946 23.9275C12.668 23.6397 13.2023 23.5662 13.733 23.7214L17.1708 24.7103C17.4438 24.7897 17.7051 24.7198 17.9031 24.5161L18.3202 24.0885C18.2335 23.9275 18.1878 23.7463 18.1878 23.5674C18.1878 23.2914 18.2897 23.0155 18.4971 22.8058L19.9605 21.3266C20.3741 20.9085 21.0525 20.9085 21.4662 21.3266L26.6883 26.6053C26.8957 26.8149 27 27.0909 27 27.3668C27 27.6428 26.8981 27.9187 26.6907 28.1284L25.2273 29.6077C24.939 29.899 24.516 29.9926 24.1411 29.8682L23.3947 30.6227C23.2986 30.7198 23.2483 30.8015 23.2084 30.9353C22.8007 32.2997 22.0121 33.1181 20.8357 33.7399C21.5891 34.8497 20.8147 36.3894 19.4531 36.3894C19.3207 36.3894 19.1895 36.3716 19.0606 36.3408C19.0032 37.235 18.2744 37.9267 17.3898 37.9267C17.2574 37.9267 17.1262 37.909 16.9973 37.8782C16.9317 38.9335 15.9439 39.6583 14.9339 39.4155C14.8414 40.8735 13.0897 41.526 12.0785 40.5039L11.1072 39.5221L11.1108 39.5161ZM11.5725 35.9596C11.6299 35.7926 11.6568 35.6173 11.6568 35.4408C11.6568 34.3275 10.5801 33.5612 9.54781 33.907C9.39783 32.8731 8.33276 32.2667 7.38251 32.6398C7.25011 31.864 6.58458 31.3026 5.80776 31.3026C5.36368 31.3026 4.97705 31.472 4.64428 31.8095L4.60561 31.7704C4.09827 31.2576 4.74973 30.6003 3.93072 29.7724L3.52296 29.3602L8.14523 24.6879L8.5471 25.0941C8.73575 25.2848 8.96071 25.4281 9.21615 25.4968C9.20092 25.5063 9.18568 25.5146 9.16811 25.5205C8.62561 25.8178 8.30457 26.3602 8.30107 26.9844C8.30107 27.6334 8.2706 28.5122 8.17218 29.0677C8.01635 29.8257 8.23194 30.3871 8.64904 30.7234C9.10482 31.093 9.73169 31.1333 10.2988 30.9544C11.0908 30.7033 11.918 29.9809 12.3293 28.7254C12.7101 28.7491 13.0885 28.6804 13.4576 28.543C13.7787 29.089 14.1114 29.4917 14.5403 29.783C15.023 30.1135 15.6018 30.29 16.3939 30.3622L20.0683 34.0764C20.5991 34.6129 20.2335 35.5557 19.4626 35.5557C19.2435 35.5557 19.0244 35.474 18.8568 35.3046L16.7536 33.1787C16.5943 33.0176 16.3342 33.0176 16.1748 33.1787C16.0154 33.3397 16.0155 33.6027 16.1748 33.7637L18.005 35.6138C18.5358 36.1503 18.1702 37.093 17.3993 37.093C17.1801 37.093 16.9611 37.0113 16.7935 36.8419L15.3992 35.4325C15.2398 35.2715 14.9797 35.2715 14.8204 35.4325C14.661 35.5936 14.661 35.8565 14.8204 36.0176L15.9417 37.1511C16.1069 37.3181 16.1901 37.5419 16.1901 37.7634C16.1901 38.5427 15.2574 38.9123 14.7267 38.3757L14.0846 37.7267C13.9252 37.5656 13.6651 37.5656 13.5058 37.7267C13.3464 37.8878 13.3464 38.1507 13.5058 38.3118L13.8772 38.6872C14.0424 38.8542 14.1256 39.0781 14.1256 39.2995C14.1256 40.0789 13.1929 40.4484 12.6621 39.9118L11.6908 38.93L12.2638 38.3508C12.5368 38.0749 12.675 37.7077 12.675 37.3441C12.675 36.6738 12.2216 36.0981 11.5736 35.956L11.5725 35.9596ZM16.5814 29.552C15.8702 29.4975 15.3757 29.3637 14.9914 29.1008C14.6071 28.8402 14.3106 28.434 13.9955 27.843C13.8877 27.6274 13.6475 27.5493 13.4471 27.6487C13.0183 27.8643 12.5707 27.9733 12.1243 27.8643C11.9052 27.8122 11.6861 27.9496 11.6357 28.1675C11.3533 29.3223 10.6819 29.9654 10.0516 30.1655C9.75513 30.2591 9.39191 30.2686 9.15756 30.0803C8.97477 29.9322 8.88455 29.6491 8.96891 29.237C8.97243 29.2216 8.97829 29.2062 8.97829 29.192C9.08608 28.5584 9.11303 27.7281 9.11655 26.9819C9.11655 26.6633 9.2759 26.3968 9.55475 26.2452C10.4874 25.736 11.6872 25.2018 12.6233 24.6298C12.908 24.4568 13.1962 24.4178 13.5173 24.509L16.955 25.4979C17.2339 25.5773 17.5163 25.5796 17.7799 25.5097C18.2743 25.3759 18.5333 25.0455 18.8742 24.6937L23.4872 29.3566L22.8217 30.0294C22.6389 30.2141 22.5065 30.4356 22.4315 30.6879C22.0624 31.922 21.3488 32.5675 20.2603 33.104L16.8649 29.6718C16.7864 29.5925 16.688 29.5534 16.586 29.551L16.5814 29.552Z" fill="black"/>
<rect x="5.20711" y="8" width="11.7279" height="11.7279" rx="2.5" transform="rotate(-45 5.20711 8)" stroke="#8F69FF"/>
</svg>
