<svg viewBox="0 0 12 13" fill="none" xmlns="http://www.w3.org/2000/svg">
<path d="M4.76465 12.6318C4.81995 12.4959 4.97294 12.431 5.10645 12.4873C5.23957 12.5437 5.30298 12.6992 5.24805 12.835C5.19279 12.9708 5.03969 13.0356 4.90625 12.9795C4.77283 12.9232 4.70954 12.7678 4.76465 12.6318ZM5.78125 11.5C5.88662 11.3625 6.08184 11.338 6.2168 11.4453C6.35163 11.5527 6.37584 11.7513 6.27051 11.8887C6.16514 12.026 5.96987 12.0506 5.83496 11.9434C5.70013 11.8361 5.67623 11.6374 5.78125 11.5ZM6.79199 10.3975C6.93184 10.255 7.15892 10.2551 7.29883 10.3975C7.43868 10.5399 7.43859 10.7706 7.29883 10.9131C7.15893 11.0556 6.93189 11.0556 6.79199 10.9131C6.65258 10.7706 6.65241 10.5398 6.79199 10.3975ZM7.77734 9.32422C7.93612 9.16249 8.19376 9.16249 8.35254 9.32422C8.51117 9.48595 8.51125 9.7475 8.35254 9.90918C8.19376 10.0709 7.93612 10.0709 7.77734 9.90918C7.61901 9.74757 7.61909 9.48588 7.77734 9.32422ZM8.91211 8.14941C9.14403 8.0519 9.40981 8.16422 9.50586 8.40039C9.60198 8.63675 9.49182 8.90796 9.25977 9.00586C9.02772 9.10374 8.76116 8.99123 8.66504 8.75488C8.56907 8.51858 8.68013 8.24729 8.91211 8.14941ZM9.91309 7.06543C10.1698 6.95712 10.464 7.08128 10.5703 7.34277C10.6766 7.60424 10.5545 7.90342 10.2979 8.01172C10.0412 8.11994 9.74695 7.99582 9.64062 7.73438C9.53461 7.47301 9.65655 7.17371 9.91309 7.06543ZM11.126 5.93848C11.4303 5.9387 11.6768 6.18999 11.6768 6.5C11.6767 6.80993 11.4302 7.0613 11.126 7.06152C10.8215 7.06152 10.5743 6.81006 10.5742 6.5C10.5742 6.18985 10.8215 5.93848 11.126 5.93848ZM9.88867 4.99902C10.1396 4.8774 10.4402 4.98564 10.5596 5.24121C10.6789 5.49673 10.5721 5.80218 10.3213 5.92383C10.0704 6.04545 9.7698 5.93721 9.65039 5.68164C9.53113 5.42621 9.63803 5.12074 9.88867 4.99902ZM8.86133 4.01953C9.07957 3.89322 9.35725 3.97113 9.48145 4.19336C9.60534 4.41562 9.52868 4.69775 9.31055 4.82422C9.09227 4.95073 8.81467 4.87368 8.69043 4.65137C8.56618 4.42904 8.64305 4.14609 8.86133 4.01953ZM7.83398 3.04297C8.01855 2.9127 8.27249 2.95947 8.40039 3.14746C8.52806 3.33532 8.48207 3.59332 8.29785 3.72363C8.11328 3.8539 7.85934 3.80713 7.73145 3.61914C7.6037 3.43122 7.64961 3.17324 7.83398 3.04297ZM6.82129 2.05957C6.9754 1.93351 7.20123 1.95836 7.3252 2.11523C7.44902 2.27208 7.42425 2.50156 7.27051 2.62793C7.11645 2.75423 6.89068 2.73005 6.7666 2.57324C6.64255 2.41626 6.66717 2.18592 6.82129 2.05957ZM5.80664 1.08203C5.92764 0.958784 6.12403 0.958919 6.24512 1.08203C6.36619 1.20535 6.36619 1.40501 6.24512 1.52832C6.12404 1.65156 5.92768 1.65161 5.80664 1.52832C5.68601 1.40506 5.68593 1.20524 5.80664 1.08203ZM4.7832 0.125977C4.85926 0.00102157 5.02073 -0.0372837 5.14355 0.0400391C5.26607 0.117447 5.30412 0.281219 5.22852 0.40625C5.15255 0.53143 4.99108 0.570495 4.86816 0.493164C4.74524 0.415777 4.70723 0.251179 4.7832 0.125977Z" fill="black"/>
</svg>
