<svg width="20" height="21" viewBox="0 0 20 21" fill="none" xmlns="http://www.w3.org/2000/svg">
<path d="M2.60865 4.38736C2.88775 4.08129 2.86589 3.60692 2.55983 3.32782C2.25376 3.04872 1.77939 3.07058 1.50029 3.37665L2.05447 3.882L2.60865 4.38736ZM5.75 2.25V3C5.7561 3 5.7622 3 5.76829 3C5.77438 3 5.78047 3 5.78655 3C5.79263 3 5.79871 3 5.80478 3C5.81085 3 5.81691 3 5.82297 3C5.82903 3 5.83509 3 5.84114 3C5.84719 3 5.85323 3 5.85927 3C5.86531 3 5.87135 3 5.87738 3C5.88341 3 5.88943 3 5.89545 3C5.90147 3 5.90749 3 5.9135 3C5.9195 3 5.92551 3 5.93151 3C5.93751 3 5.9435 3 5.94949 3C5.95548 3 5.96146 3 5.96744 3C5.97342 3 5.9794 3 5.98537 3C5.99134 3 5.9973 3 6.00326 3C6.00922 3 6.01517 3 6.02112 3C6.02707 3 6.03302 3 6.03896 3C6.0449 3 6.05083 3 6.05676 3C6.06269 3 6.06861 3 6.07453 3C6.08045 3 6.08637 3 6.09228 3C6.09819 3 6.1041 3 6.11 3C6.1159 3 6.12179 3 6.12768 3C6.13358 3 6.13946 3 6.14534 3C6.15122 3 6.1571 3 6.16297 3C6.16885 3 6.17471 3 6.18057 3C6.18644 3 6.19229 3 6.19815 3C6.204 3 6.20985 3 6.21569 3C6.22154 3 6.22737 3 6.23321 3C6.23904 3 6.24487 3 6.2507 3C6.25652 3 6.26234 3 6.26816 3C6.27397 3 6.27978 3 6.28559 3C6.2914 3 6.2972 3 6.30299 3C6.30879 3 6.31458 3 6.32037 3C6.32616 3 6.33194 3 6.33772 3C6.3435 3 6.34927 3 6.35504 3C6.36081 3 6.36658 3 6.37234 3C6.3781 3 6.38385 3 6.38961 3C6.39536 3 6.4011 3 6.40685 3C6.41259 3 6.41833 3 6.42406 3C6.42979 3 6.43552 3 6.44125 3C6.44697 3 6.45269 3 6.45841 3C6.46413 3 6.46984 3 6.47554 3C6.48125 3 6.48695 3 6.49265 3C6.49835 3 6.50404 3 6.50973 3C6.51542 3 6.52111 3 6.52679 3C6.53247 3 6.53815 3 6.54382 3C6.54949 3 6.55516 3 6.56082 3C6.56648 3 6.57214 3 6.5778 3C6.58345 3 6.5891 3 6.59475 3C6.6004 3 6.60604 3 6.61168 3C6.61731 3 6.62295 3 6.62858 3C6.63421 3 6.63983 3 6.64545 3C6.65107 3 6.65669 3 6.6623 3C6.66792 3 6.67353 3 6.67913 3C6.68473 3 6.69033 3 6.69593 3C6.70153 3 6.70712 3 6.71271 3C6.71829 3 6.72388 3 6.72946 3C6.73504 3 6.74061 3 6.74618 3C6.75176 3 6.75732 3 6.76289 3C6.76845 3 6.77401 3 6.77956 3C6.78512 3 6.79067 3 6.79622 3C6.80177 3 6.80731 3 6.81285 3C6.81839 3 6.82392 3 6.82945 3C6.83499 3 6.84051 3 6.84604 3C6.85156 3 6.85708 3 6.86259 3C6.86811 3 6.87362 3 6.87913 3C6.88464 3 6.89014 3 6.89564 3C6.90114 3 6.90664 3 6.91213 3C6.91762 3 6.92311 3 6.92859 3C6.93408 3 6.93956 3 6.94504 3C6.95051 3 6.95599 3 6.96145 3C6.96692 3 6.97239 3 6.97785 3C6.98331 3 6.98877 3 6.99422 3C6.99968 3 7.00513 3 7.01057 3C7.01602 3 7.02146 3 7.0269 3C7.03234 3 7.03778 3 7.04321 3C7.04864 3 7.05407 3 7.05949 3C7.06492 3 7.07034 3 7.07575 3C7.08117 3 7.08658 3 7.09199 3C7.0974 3 7.10281 3 7.10821 3C7.11361 3 7.11901 3 7.12441 3C7.1298 3 7.13519 3 7.14058 3C7.14597 3 7.15135 3 7.15673 3C7.16212 3 7.16749 3 7.17287 3C7.17824 3 7.18361 3 7.18898 3C7.19434 3 7.19971 3 7.20507 3C7.21043 3 7.21578 3 7.22113 3C7.22649 3 7.23184 3 7.23718 3C7.24253 3 7.24787 3 7.25321 3C7.25855 3 7.26388 3 7.26921 3C7.27455 3 7.27987 3 7.2852 3C7.29053 3 7.29585 3 7.30117 3C7.30648 3 7.3118 3 7.31711 3C7.32242 3 7.32773 3 7.33303 3C7.33834 3 7.34364 3 7.34894 3C7.35424 3 7.35953 3 7.36483 3C7.37012 3 7.37541 3 7.38069 3C7.38598 3 7.39126 3 7.39654 3C7.40181 3 7.40709 3 7.41236 3C7.41763 3 7.4229 3 7.42817 3C7.43343 3 7.4387 3 7.44396 3C7.44922 3 7.45447 3 7.45972 3C7.46498 3 7.47023 3 7.47547 3C7.48072 3 7.48596 3 7.4912 3C7.49644 3 7.50168 3 7.50692 3C7.51215 3 7.51738 3 7.52261 3C7.52784 3 7.53306 3 7.53828 3C7.5435 3 7.54872 3 7.55394 3C7.55915 3 7.56437 3 7.56958 3C7.57479 3 7.57999 3 7.5852 3C7.5904 3 7.5956 3 7.6008 3C7.606 3 7.61119 3 7.61638 3C7.62157 3 7.62676 3 7.63195 3C7.63713 3 7.64232 3 7.6475 3C7.65267 3 7.65785 3 7.66303 3C7.6682 3 7.67337 3 7.67854 3C7.68371 3 7.68887 3 7.69403 3C7.6992 3 7.70436 3 7.70951 3C7.71467 3 7.71982 3 7.72497 3C7.73013 3 7.73527 3 7.74042 3C7.74556 3 7.75071 3 7.75585 3C7.76099 3 7.76612 3 7.77126 3C7.77639 3 7.78152 3 7.78665 3C7.79178 3 7.79691 3 7.80203 3C7.80715 3 7.81228 3 7.81739 3C7.82251 3 7.82763 3 7.83274 3C7.83785 3 7.84296 3 7.84807 3C7.85318 3 7.85828 3 7.86338 3C7.86848 3 7.87358 3 7.87868 3C7.88378 3 7.88887 3 7.89396 3C7.89905 3 7.90414 3 7.90923 3C7.91431 3 7.9194 3 7.92448 3C7.92956 3 7.93464 3 7.93971 3C7.94479 3 7.94986 3 7.95494 3C7.96001 3 7.96507 3 7.97014 3C7.97521 3 7.98027 3 7.98533 3C7.99039 3 7.99545 3 8.00051 3C8.00556 3 8.01062 3 8.01567 3C8.02072 3 8.02577 3 8.03081 3C8.03586 3 8.0409 3 8.04595 3C8.05099 3 8.05603 3 8.06106 3C8.0661 3 8.07113 3 8.07617 3C8.0812 3 8.08623 3 8.09126 3C8.09628 3 8.10131 3 8.10633 3C8.11135 3 8.11637 3 8.12139 3C8.12641 3 8.13142 3 8.13644 3C8.14145 3 8.14646 3 8.15147 3C8.15648 3 8.16149 3 8.16649 3C8.1715 3 8.1765 3 8.1815 3C8.1865 3 8.1915 3 8.19649 3C8.20149 3 8.20648 3 8.21147 3C8.21646 3 8.22145 3 8.22644 3C8.23143 3 8.23641 3 8.2414 3C8.24638 3 8.25136 3 8.25634 3C8.26132 3 8.26629 3 8.27127 3C8.27624 3 8.28121 3 8.28618 3C8.29115 3 8.29612 3 8.30109 3C8.30605 3 8.31102 3 8.31598 3C8.32094 3 8.3259 3 8.33086 3C8.33582 3 8.34077 3 8.34573 3C8.35068 3 8.35563 3 8.36058 3C8.36553 3 8.37048 3 8.37543 3C8.38037 3 8.38532 3 8.39026 3C8.3952 3 8.40014 3 8.40508 3C8.41002 3 8.41496 3 8.41989 3C8.42483 3 8.42976 3 8.43469 3C8.43962 3 8.44455 3 8.44948 3C8.4544 3 8.45933 3 8.46425 3C8.46918 3 8.4741 3 8.47902 3C8.48394 3 8.48886 3 8.49377 3C8.49869 3 8.5036 3 8.50852 3C8.51343 3 8.51834 3 8.52325 3C8.52816 3 8.53307 3 8.53797 3C8.54288 3 8.54778 3 8.55268 3C8.55759 3 8.56249 3 8.56739 3C8.57229 3 8.57718 3 8.58208 3C8.58697 3 8.59187 3 8.59676 3C8.60165 3 8.60654 3 8.61143 3C8.61632 3 8.62121 3 8.6261 3C8.63098 3 8.63587 3 8.64075 3C8.64563 3 8.65051 3 8.65539 3C8.66027 3 8.66515 3 8.67003 3C8.6749 3 8.67978 3 8.68465 3C8.68953 3 8.6944 3 8.69927 3C8.70414 3 8.70901 3 8.71388 3C8.71874 3 8.72361 3 8.72847 3C8.73334 3 8.7382 3 8.74306 3C8.74793 3 8.75279 3 8.75764 3C8.7625 3 8.76736 3 8.77222 3C8.77707 3 8.78193 3 8.78678 3C8.79163 3 8.79649 3 8.80134 3C8.80619 3 8.81104 3 8.81588 3C8.82073 3 8.82558 3 8.83043 3C8.83527 3 8.84011 3 8.84496 3C8.8498 3 8.85464 3 8.85948 3C8.86432 3 8.86916 3 8.874 3C8.87884 3 8.88367 3 8.88851 3C8.89334 3 8.89818 3 8.90301 3C8.90784 3 8.91267 3 8.9175 3C8.92233 3 8.92716 3 8.93199 3C8.93682 3 8.94165 3 8.94647 3C8.9513 3 8.95612 3 8.96095 3C8.96577 3 8.97059 3 8.97541 3C8.98023 3 8.98505 3 8.98987 3C8.99469 3 8.99951 3 9.00433 3C9.00914 3 9.01396 3 9.01877 3C9.02359 3 9.0284 3 9.03321 3C9.03803 3 9.04284 3 9.04765 3C9.05246 3 9.05727 3 9.06208 3C9.06689 3 9.07169 3 9.0765 3C9.08131 3 9.08611 3 9.09092 3C9.09572 3 9.10053 3 9.10533 3C9.11013 3 9.11493 3 9.11974 3C9.12454 3 9.12934 3 9.13414 3C9.13894 3 9.14373 3 9.14853 3C9.15333 3 9.15813 3 9.16292 3C9.16772 3 9.17251 3 9.17731 3C9.1821 3 9.1869 3 9.19169 3C9.19648 3 9.20127 3 9.20606 3C9.21085 3 9.21564 3 9.22043 3C9.22522 3 9.23001 3 9.2348 3C9.23959 3 9.24438 3 9.24916 3C9.25395 3 9.25873 3 9.26352 3C9.26831 3 9.27309 3 9.27787 3C9.28266 3 9.28744 3 9.29222 3C9.29701 3 9.30179 3 9.30657 3C9.31135 3 9.31613 3 9.32091 3C9.32569 3 9.33047 3 9.33525 3C9.34003 3 9.3448 3 9.34958 3C9.35436 3 9.35914 3 9.36391 3C9.36869 3 9.37347 3 9.37824 3C9.38302 3 9.38779 3 9.39257 3C9.39734 3 9.40211 3 9.40689 3C9.41166 3 9.41643 3 9.42121 3C9.42598 3 9.43075 3 9.43552 3C9.44029 3 9.44506 3 9.44983 3C9.45461 3 9.45938 3 9.46414 3C9.46891 3 9.47368 3 9.47845 3C9.48322 3 9.48799 3 9.49276 3C9.49753 3 9.50229 3 9.50706 3C9.51183 3 9.5166 3 9.52136 3C9.52613 3 9.5309 3 9.53566 3C9.54043 3 9.54519 3 9.54996 3C9.55473 3 9.55949 3 9.56426 3C9.56902 3 9.57378 3 9.57855 3C9.58331 3 9.58808 3 9.59284 3C9.59761 3 9.60237 3 9.60713 3C9.6119 3 9.61666 3 9.62142 3C9.62619 3 9.63095 3 9.63571 3C9.64048 3 9.64524 3 9.65 3C9.65476 3 9.65953 3 9.66429 3C9.66905 3 9.67381 3 9.67857 3C9.68334 3 9.6881 3 9.69286 3C9.69762 3 9.70238 3 9.70715 3C9.71191 3 9.71667 3 9.72143 3C9.72619 3 9.73095 3 9.73572 3C9.74048 3 9.74524 3 9.75 3C9.75476 3 9.75952 3 9.76428 3C9.76905 3 9.77381 3 9.77857 3C9.78333 3 9.78809 3 9.79285 3C9.79762 3 9.80238 3 9.80714 3C9.8119 3 9.81666 3 9.82143 3C9.82619 3 9.83095 3 9.83571 3C9.84047 3 9.84524 3 9.85 3C9.85476 3 9.85952 3 9.86429 3C9.86905 3 9.87381 3 9.87858 3C9.88334 3 9.8881 3 9.89287 3C9.89763 3 9.90239 3 9.90716 3C9.91192 3 9.91669 3 9.92145 3C9.92622 3 9.93098 3 9.93574 3C9.94051 3 9.94527 3 9.95004 3C9.95481 3 9.95957 3 9.96434 3C9.9691 3 9.97387 3 9.97864 3C9.9834 3 9.98817 3 9.99294 3C9.99771 3 10.0025 3 10.0072 3C10.012 3 10.0168 3 10.0215 3C10.0263 3 10.0311 3 10.0359 3C10.0406 3 10.0454 3 10.0502 3C10.0549 3 10.0597 3 10.0645 3C10.0693 3 10.074 3 10.0788 3C10.0836 3 10.0883 3 10.0931 3C10.0979 3 10.1027 3 10.1074 3C10.1122 3 10.117 3 10.1218 3C10.1265 3 10.1313 3 10.1361 3C10.1409 3 10.1456 3 10.1504 3C10.1552 3 10.16 3 10.1648 3C10.1695 3 10.1743 3 10.1791 3C10.1839 3 10.1887 3 10.1934 3C10.1982 3 10.203 3 10.2078 3C10.2126 3 10.2173 3 10.2221 3C10.2269 3 10.2317 3 10.2365 3C10.2413 3 10.2461 3 10.2508 3C10.2556 3 10.2604 3 10.2652 3C10.27 3 10.2748 3 10.2796 3C10.2844 3 10.2891 3 10.2939 3C10.2987 3 10.3035 3 10.3083 3C10.3131 3 10.3179 3 10.3227 3C10.3275 3 10.3323 3 10.3371 3C10.3419 3 10.3467 3 10.3515 3C10.3563 3 10.3611 3 10.3659 3C10.3707 3 10.3755 3 10.3803 3C10.3851 3 10.3899 3 10.3947 3C10.3995 3 10.4043 3 10.4091 3C10.4139 3 10.4187 3 10.4235 3C10.4283 3 10.4331 3 10.4379 3C10.4427 3 10.4475 3 10.4524 3C10.4572 3 10.462 3 10.4668 3C10.4716 3 10.4764 3 10.4812 3C10.486 3 10.4909 3 10.4957 3C10.5005 3 10.5053 3 10.5101 3C10.5149 3 10.5198 3 10.5246 3C10.5294 3 10.5342 3 10.5391 3C10.5439 3 10.5487 3 10.5535 3C10.5584 3 10.5632 3 10.568 3C10.5728 3 10.5777 3 10.5825 3C10.5873 3 10.5922 3 10.597 3C10.6018 3 10.6067 3 10.6115 3C10.6163 3 10.6212 3 10.626 3C10.6308 3 10.6357 3 10.6405 3C10.6454 3 10.6502 3 10.655 3C10.6599 3 10.6647 3 10.6696 3C10.6744 3 10.6793 3 10.6841 3C10.689 3 10.6938 3 10.6987 3C10.7035 3 10.7084 3 10.7132 3C10.7181 3 10.7229 3 10.7278 3C10.7326 3 10.7375 3 10.7424 3C10.7472 3 10.7521 3 10.7569 3C10.7618 3 10.7667 3 10.7715 3C10.7764 3 10.7813 3 10.7861 3C10.791 3 10.7959 3 10.8007 3C10.8056 3 10.8105 3 10.8153 3C10.8202 3 10.8251 3 10.83 3C10.8348 3 10.8397 3 10.8446 3C10.8495 3 10.8544 3 10.8593 3C10.8641 3 10.869 3 10.8739 3C10.8788 3 10.8837 3 10.8886 3C10.8935 3 10.8983 3 10.9032 3C10.9081 3 10.913 3 10.9179 3C10.9228 3 10.9277 3 10.9326 3C10.9375 3 10.9424 3 10.9473 3C10.9522 3 10.9571 3 10.962 3C10.9669 3 10.9718 3 10.9768 3C10.9817 3 10.9866 3 10.9915 3C10.9964 3 11.0013 3 11.0062 3C11.0111 3 11.0161 3 11.021 3C11.0259 3 11.0308 3 11.0357 3C11.0407 3 11.0456 3 11.0505 3C11.0555 3 11.0604 3 11.0653 3C11.0702 3 11.0752 3 11.0801 3C11.085 3 11.09 3 11.0949 3C11.0999 3 11.1048 3 11.1097 3C11.1147 3 11.1196 3 11.1246 3C11.1295 3 11.1345 3 11.1394 3C11.1444 3 11.1493 3 11.1543 3C11.1592 3 11.1642 3 11.1691 3C11.1741 3 11.1791 3 11.184 3C11.189 3 11.1939 3 11.1989 3C11.2039 3 11.2088 3 11.2138 3C11.2188 3 11.2238 3 11.2287 3C11.2337 3 11.2387 3 11.2437 3C11.2486 3 11.2536 3 11.2586 3C11.2636 3 11.2686 3 11.2736 3C11.2785 3 11.2835 3 11.2885 3C11.2935 3 11.2985 3 11.3035 3C11.3085 3 11.3135 3 11.3185 3C11.3235 3 11.3285 3 11.3335 3C11.3385 3 11.3435 3 11.3485 3C11.3535 3 11.3585 3 11.3636 3C11.3686 3 11.3736 3 11.3786 3C11.3836 3 11.3886 3 11.3937 3C11.3987 3 11.4037 3 11.4087 3C11.4138 3 11.4188 3 11.4238 3C11.4289 3 11.4339 3 11.4389 3C11.444 3 11.449 3 11.4541 3C11.4591 3 11.4641 3 11.4692 3C11.4742 3 11.4793 3 11.4843 3C11.4894 3 11.4944 3 11.4995 3C11.5045 3 11.5096 3 11.5147 3C11.5197 3 11.5248 3 11.5299 3C11.5349 3 11.54 3 11.5451 3C11.5501 3 11.5552 3 11.5603 3C11.5654 3 11.5704 3 11.5755 3C11.5806 3 11.5857 3 11.5908 3C11.5959 3 11.6009 3 11.606 3C11.6111 3 11.6162 3 11.6213 3C11.6264 3 11.6315 3 11.6366 3C11.6417 3 11.6468 3 11.6519 3C11.657 3 11.6621 3 11.6673 3C11.6724 3 11.6775 3 11.6826 3C11.6877 3 11.6928 3 11.698 3C11.7031 3 11.7082 3 11.7133 3C11.7185 3 11.7236 3 11.7287 3C11.7339 3 11.739 3 11.7442 3C11.7493 3 11.7544 3 11.7596 3C11.7647 3 11.7699 3 11.775 3C11.7802 3 11.7853 3 11.7905 3C11.7956 3 11.8008 3 11.806 3C11.8111 3 11.8163 3 11.8215 3C11.8266 3 11.8318 3 11.837 3C11.8421 3 11.8473 3 11.8525 3C11.8577 3 11.8629 3 11.8681 3C11.8732 3 11.8784 3 11.8836 3C11.8888 3 11.894 3 11.8992 3C11.9044 3 11.9096 3 11.9148 3C11.92 3 11.9252 3 11.9304 3C11.9356 3 11.9408 3 11.9461 3C11.9513 3 11.9565 3 11.9617 3C11.9669 3 11.9722 3 11.9774 3C11.9826 3 11.9879 3 11.9931 3C11.9983 3 12.0036 3 12.0088 3C12.014 3 12.0193 3 12.0245 3C12.0298 3 12.035 3 12.0403 3C12.0455 3 12.0508 3 12.056 3C12.0613 3 12.0666 3 12.0718 3C12.0771 3 12.0824 3 12.0876 3C12.0929 3 12.0982 3 12.1035 3C12.1087 3 12.114 3 12.1193 3C12.1246 3 12.1299 3 12.1352 3C12.1405 3 12.1458 3 12.1511 3C12.1564 3 12.1617 3 12.167 3C12.1723 3 12.1776 3 12.1829 3C12.1882 3 12.1935 3 12.1988 3C12.2042 3 12.2095 3 12.2148 3C12.2201 3 12.2255 3 12.2308 3C12.2361 3 12.2415 3 12.2468 3C12.2521 3 12.2575 3 12.2628 3C12.2682 3 12.2735 3 12.2789 3C12.2842 3 12.2896 3 12.2949 3C12.3003 3 12.3057 3 12.311 3C12.3164 3 12.3218 3 12.3271 3C12.3325 3 12.3379 3 12.3433 3C12.3486 3 12.354 3 12.3594 3C12.3648 3 12.3702 3 12.3756 3C12.381 3 12.3864 3 12.3918 3C12.3972 3 12.4026 3 12.408 3C12.4134 3 12.4188 3 12.4242 3C12.4297 3 12.4351 3 12.4405 3C12.4459 3 12.4514 3 12.4568 3C12.4622 3 12.4677 3 12.4731 3C12.4785 3 12.484 3 12.4894 3C12.4949 3 12.5003 3 12.5058 3C12.5112 3 12.5167 3 12.5222 3C12.5276 3 12.5331 3 12.5385 3C12.544 3 12.5495 3 12.555 3C12.5604 3 12.5659 3 12.5714 3C12.5769 3 12.5824 3 12.5879 3C12.5934 3 12.5989 3 12.6044 3C12.6099 3 12.6154 3 12.6209 3C12.6264 3 12.6319 3 12.6374 3C12.6429 3 12.6484 3 12.654 3C12.6595 3 12.665 3 12.6705 3C12.6761 3 12.6816 3 12.6872 3C12.6927 3 12.6982 3 12.7038 3C12.7093 3 12.7149 3 12.7204 3C12.726 3 12.7315 3 12.7371 3C12.7427 3 12.7482 3 12.7538 3C12.7594 3 12.765 3 12.7705 3C12.7761 3 12.7817 3 12.7873 3C12.7929 3 12.7985 3 12.8041 3C12.8097 3 12.8153 3 12.8209 3C12.8265 3 12.8321 3 12.8377 3C12.8433 3 12.8489 3 12.8545 3C12.8602 3 12.8658 3 12.8714 3C12.8771 3 12.8827 3 12.8883 3C12.894 3 12.8996 3 12.9052 3C12.9109 3 12.9165 3 12.9222 3C12.9279 3 12.9335 3 12.9392 3C12.9448 3 12.9505 3 12.9562 3C12.9619 3 12.9675 3 12.9732 3C12.9789 3 12.9846 3 12.9903 3C12.996 3 13.0017 3 13.0073 3C13.013 3 13.0187 3 13.0245 3C13.0302 3 13.0359 3 13.0416 3C13.0473 3 13.053 3 13.0588 3C13.0645 3 13.0702 3 13.0759 3C13.0817 3 13.0874 3 13.0932 3C13.0989 3 13.1046 3 13.1104 3C13.1161 3 13.1219 3 13.1277 3C13.1334 3 13.1392 3 13.145 3C13.1507 3 13.1565 3 13.1623 3C13.1681 3 13.1738 3 13.1796 3C13.1854 3 13.1912 3 13.197 3C13.2028 3 13.2086 3 13.2144 3C13.2202 3 13.226 3 13.2318 3C13.2377 3 13.2435 3 13.2493 3C13.2551 3 13.261 3 13.2668 3C13.2726 3 13.2785 3 13.2843 3C13.2902 3 13.296 3 13.3019 3C13.3077 3 13.3136 3 13.3194 3C13.3253 3 13.3312 3 13.337 3C13.3429 3 13.3488 3 13.3547 3C13.3605 3 13.3664 3 13.3723 3C13.3782 3 13.3841 3 13.39 3C13.3959 3 13.4018 3 13.4077 3C13.4136 3 13.4195 3 13.4255 3C13.4314 3 13.4373 3 13.4432 3C13.4492 3 13.4551 3 13.461 3C13.467 3 13.4729 3 13.4789 3C13.4848 3 13.4908 3 13.4967 3C13.5027 3 13.5087 3 13.5146 3C13.5206 3 13.5266 3 13.5326 3C13.5385 3 13.5445 3 13.5505 3C13.5565 3 13.5625 3 13.5685 3C13.5745 3 13.5805 3 13.5865 3C13.5925 3 13.5985 3 13.6045 3C13.6106 3 13.6166 3 13.6226 3C13.6287 3 13.6347 3 13.6407 3C13.6468 3 13.6528 3 13.6589 3C13.6649 3 13.671 3 13.677 3C13.6831 3 13.6892 3 13.6952 3C13.7013 3 13.7074 3 13.7135 3C13.7195 3 13.7256 3 13.7317 3C13.7378 3 13.7439 3 13.75 3V2.25V1.5C13.7439 1.5 13.7378 1.5 13.7317 1.5C13.7256 1.5 13.7195 1.5 13.7135 1.5C13.7074 1.5 13.7013 1.5 13.6952 1.5C13.6892 1.5 13.6831 1.5 13.677 1.5C13.671 1.5 13.6649 1.5 13.6589 1.5C13.6528 1.5 13.6468 1.5 13.6407 1.5C13.6347 1.5 13.6287 1.5 13.6226 1.5C13.6166 1.5 13.6106 1.5 13.6045 1.5C13.5985 1.5 13.5925 1.5 13.5865 1.5C13.5805 1.5 13.5745 1.5 13.5685 1.5C13.5625 1.5 13.5565 1.5 13.5505 1.5C13.5445 1.5 13.5385 1.5 13.5326 1.5C13.5266 1.5 13.5206 1.5 13.5146 1.5C13.5087 1.5 13.5027 1.5 13.4967 1.5C13.4908 1.5 13.4848 1.5 13.4789 1.5C13.4729 1.5 13.467 1.5 13.461 1.5C13.4551 1.5 13.4492 1.5 13.4432 1.5C13.4373 1.5 13.4314 1.5 13.4255 1.5C13.4195 1.5 13.4136 1.5 13.4077 1.5C13.4018 1.5 13.3959 1.5 13.39 1.5C13.3841 1.5 13.3782 1.5 13.3723 1.5C13.3664 1.5 13.3605 1.5 13.3547 1.5C13.3488 1.5 13.3429 1.5 13.337 1.5C13.3312 1.5 13.3253 1.5 13.3194 1.5C13.3136 1.5 13.3077 1.5 13.3019 1.5C13.296 1.5 13.2902 1.5 13.2843 1.5C13.2785 1.5 13.2726 1.5 13.2668 1.5C13.261 1.5 13.2551 1.5 13.2493 1.5C13.2435 1.5 13.2377 1.5 13.2318 1.5C13.226 1.5 13.2202 1.5 13.2144 1.5C13.2086 1.5 13.2028 1.5 13.197 1.5C13.1912 1.5 13.1854 1.5 13.1796 1.5C13.1738 1.5 13.1681 1.5 13.1623 1.5C13.1565 1.5 13.1507 1.5 13.145 1.5C13.1392 1.5 13.1334 1.5 13.1277 1.5C13.1219 1.5 13.1161 1.5 13.1104 1.5C13.1046 1.5 13.0989 1.5 13.0932 1.5C13.0874 1.5 13.0817 1.5 13.0759 1.5C13.0702 1.5 13.0645 1.5 13.0588 1.5C13.053 1.5 13.0473 1.5 13.0416 1.5C13.0359 1.5 13.0302 1.5 13.0245 1.5C13.0187 1.5 13.013 1.5 13.0073 1.5C13.0017 1.5 12.996 1.5 12.9903 1.5C12.9846 1.5 12.9789 1.5 12.9732 1.5C12.9675 1.5 12.9619 1.5 12.9562 1.5C12.9505 1.5 12.9448 1.5 12.9392 1.5C12.9335 1.5 12.9279 1.5 12.9222 1.5C12.9165 1.5 12.9109 1.5 12.9052 1.5C12.8996 1.5 12.894 1.5 12.8883 1.5C12.8827 1.5 12.8771 1.5 12.8714 1.5C12.8658 1.5 12.8602 1.5 12.8545 1.5C12.8489 1.5 12.8433 1.5 12.8377 1.5C12.8321 1.5 12.8265 1.5 12.8209 1.5C12.8153 1.5 12.8097 1.5 12.8041 1.5C12.7985 1.5 12.7929 1.5 12.7873 1.5C12.7817 1.5 12.7761 1.5 12.7705 1.5C12.765 1.5 12.7594 1.5 12.7538 1.5C12.7482 1.5 12.7427 1.5 12.7371 1.5C12.7315 1.5 12.726 1.5 12.7204 1.5C12.7149 1.5 12.7093 1.5 12.7038 1.5C12.6982 1.5 12.6927 1.5 12.6872 1.5C12.6816 1.5 12.6761 1.5 12.6705 1.5C12.665 1.5 12.6595 1.5 12.654 1.5C12.6484 1.5 12.6429 1.5 12.6374 1.5C12.6319 1.5 12.6264 1.5 12.6209 1.5C12.6154 1.5 12.6099 1.5 12.6044 1.5C12.5989 1.5 12.5934 1.5 12.5879 1.5C12.5824 1.5 12.5769 1.5 12.5714 1.5C12.5659 1.5 12.5604 1.5 12.555 1.5C12.5495 1.5 12.544 1.5 12.5385 1.5C12.5331 1.5 12.5276 1.5 12.5222 1.5C12.5167 1.5 12.5112 1.5 12.5058 1.5C12.5003 1.5 12.4949 1.5 12.4894 1.5C12.484 1.5 12.4785 1.5 12.4731 1.5C12.4677 1.5 12.4622 1.5 12.4568 1.5C12.4514 1.5 12.4459 1.5 12.4405 1.5C12.4351 1.5 12.4297 1.5 12.4242 1.5C12.4188 1.5 12.4134 1.5 12.408 1.5C12.4026 1.5 12.3972 1.5 12.3918 1.5C12.3864 1.5 12.381 1.5 12.3756 1.5C12.3702 1.5 12.3648 1.5 12.3594 1.5C12.354 1.5 12.3486 1.5 12.3433 1.5C12.3379 1.5 12.3325 1.5 12.3271 1.5C12.3218 1.5 12.3164 1.5 12.311 1.5C12.3057 1.5 12.3003 1.5 12.2949 1.5C12.2896 1.5 12.2842 1.5 12.2789 1.5C12.2735 1.5 12.2682 1.5 12.2628 1.5C12.2575 1.5 12.2521 1.5 12.2468 1.5C12.2415 1.5 12.2361 1.5 12.2308 1.5C12.2255 1.5 12.2201 1.5 12.2148 1.5C12.2095 1.5 12.2042 1.5 12.1988 1.5C12.1935 1.5 12.1882 1.5 12.1829 1.5C12.1776 1.5 12.1723 1.5 12.167 1.5C12.1617 1.5 12.1564 1.5 12.1511 1.5C12.1458 1.5 12.1405 1.5 12.1352 1.5C12.1299 1.5 12.1246 1.5 12.1193 1.5C12.114 1.5 12.1087 1.5 12.1035 1.5C12.0982 1.5 12.0929 1.5 12.0876 1.5C12.0824 1.5 12.0771 1.5 12.0718 1.5C12.0666 1.5 12.0613 1.5 12.056 1.5C12.0508 1.5 12.0455 1.5 12.0403 1.5C12.035 1.5 12.0298 1.5 12.0245 1.5C12.0193 1.5 12.014 1.5 12.0088 1.5C12.0036 1.5 11.9983 1.5 11.9931 1.5C11.9879 1.5 11.9826 1.5 11.9774 1.5C11.9722 1.5 11.9669 1.5 11.9617 1.5C11.9565 1.5 11.9513 1.5 11.9461 1.5C11.9408 1.5 11.9356 1.5 11.9304 1.5C11.9252 1.5 11.92 1.5 11.9148 1.5C11.9096 1.5 11.9044 1.5 11.8992 1.5C11.894 1.5 11.8888 1.5 11.8836 1.5C11.8784 1.5 11.8732 1.5 11.8681 1.5C11.8629 1.5 11.8577 1.5 11.8525 1.5C11.8473 1.5 11.8421 1.5 11.837 1.5C11.8318 1.5 11.8266 1.5 11.8215 1.5C11.8163 1.5 11.8111 1.5 11.806 1.5C11.8008 1.5 11.7956 1.5 11.7905 1.5C11.7853 1.5 11.7802 1.5 11.775 1.5C11.7699 1.5 11.7647 1.5 11.7596 1.5C11.7544 1.5 11.7493 1.5 11.7442 1.5C11.739 1.5 11.7339 1.5 11.7287 1.5C11.7236 1.5 11.7185 1.5 11.7133 1.5C11.7082 1.5 11.7031 1.5 11.698 1.5C11.6928 1.5 11.6877 1.5 11.6826 1.5C11.6775 1.5 11.6724 1.5 11.6673 1.5C11.6621 1.5 11.657 1.5 11.6519 1.5C11.6468 1.5 11.6417 1.5 11.6366 1.5C11.6315 1.5 11.6264 1.5 11.6213 1.5C11.6162 1.5 11.6111 1.5 11.606 1.5C11.6009 1.5 11.5959 1.5 11.5908 1.5C11.5857 1.5 11.5806 1.5 11.5755 1.5C11.5704 1.5 11.5654 1.5 11.5603 1.5C11.5552 1.5 11.5501 1.5 11.5451 1.5C11.54 1.5 11.5349 1.5 11.5299 1.5C11.5248 1.5 11.5197 1.5 11.5147 1.5C11.5096 1.5 11.5045 1.5 11.4995 1.5C11.4944 1.5 11.4894 1.5 11.4843 1.5C11.4793 1.5 11.4742 1.5 11.4692 1.5C11.4641 1.5 11.4591 1.5 11.4541 1.5C11.449 1.5 11.444 1.5 11.4389 1.5C11.4339 1.5 11.4289 1.5 11.4238 1.5C11.4188 1.5 11.4138 1.5 11.4087 1.5C11.4037 1.5 11.3987 1.5 11.3937 1.5C11.3886 1.5 11.3836 1.5 11.3786 1.5C11.3736 1.5 11.3686 1.5 11.3636 1.5C11.3585 1.5 11.3535 1.5 11.3485 1.5C11.3435 1.5 11.3385 1.5 11.3335 1.5C11.3285 1.5 11.3235 1.5 11.3185 1.5C11.3135 1.5 11.3085 1.5 11.3035 1.5C11.2985 1.5 11.2935 1.5 11.2885 1.5C11.2835 1.5 11.2785 1.5 11.2736 1.5C11.2686 1.5 11.2636 1.5 11.2586 1.5C11.2536 1.5 11.2486 1.5 11.2437 1.5C11.2387 1.5 11.2337 1.5 11.2287 1.5C11.2238 1.5 11.2188 1.5 11.2138 1.5C11.2088 1.5 11.2039 1.5 11.1989 1.5C11.1939 1.5 11.189 1.5 11.184 1.5C11.1791 1.5 11.1741 1.5 11.1691 1.5C11.1642 1.5 11.1592 1.5 11.1543 1.5C11.1493 1.5 11.1444 1.5 11.1394 1.5C11.1345 1.5 11.1295 1.5 11.1246 1.5C11.1196 1.5 11.1147 1.5 11.1097 1.5C11.1048 1.5 11.0999 1.5 11.0949 1.5C11.09 1.5 11.085 1.5 11.0801 1.5C11.0752 1.5 11.0702 1.5 11.0653 1.5C11.0604 1.5 11.0555 1.5 11.0505 1.5C11.0456 1.5 11.0407 1.5 11.0357 1.5C11.0308 1.5 11.0259 1.5 11.021 1.5C11.0161 1.5 11.0111 1.5 11.0062 1.5C11.0013 1.5 10.9964 1.5 10.9915 1.5C10.9866 1.5 10.9817 1.5 10.9768 1.5C10.9718 1.5 10.9669 1.5 10.962 1.5C10.9571 1.5 10.9522 1.5 10.9473 1.5C10.9424 1.5 10.9375 1.5 10.9326 1.5C10.9277 1.5 10.9228 1.5 10.9179 1.5C10.913 1.5 10.9081 1.5 10.9032 1.5C10.8983 1.5 10.8935 1.5 10.8886 1.5C10.8837 1.5 10.8788 1.5 10.8739 1.5C10.869 1.5 10.8641 1.5 10.8593 1.5C10.8544 1.5 10.8495 1.5 10.8446 1.5C10.8397 1.5 10.8348 1.5 10.83 1.5C10.8251 1.5 10.8202 1.5 10.8153 1.5C10.8105 1.5 10.8056 1.5 10.8007 1.5C10.7959 1.5 10.791 1.5 10.7861 1.5C10.7813 1.5 10.7764 1.5 10.7715 1.5C10.7667 1.5 10.7618 1.5 10.7569 1.5C10.7521 1.5 10.7472 1.5 10.7424 1.5C10.7375 1.5 10.7326 1.5 10.7278 1.5C10.7229 1.5 10.7181 1.5 10.7132 1.5C10.7084 1.5 10.7035 1.5 10.6987 1.5C10.6938 1.5 10.689 1.5 10.6841 1.5C10.6793 1.5 10.6744 1.5 10.6696 1.5C10.6647 1.5 10.6599 1.5 10.655 1.5C10.6502 1.5 10.6454 1.5 10.6405 1.5C10.6357 1.5 10.6308 1.5 10.626 1.5C10.6212 1.5 10.6163 1.5 10.6115 1.5C10.6067 1.5 10.6018 1.5 10.597 1.5C10.5922 1.5 10.5873 1.5 10.5825 1.5C10.5777 1.5 10.5728 1.5 10.568 1.5C10.5632 1.5 10.5584 1.5 10.5535 1.5C10.5487 1.5 10.5439 1.5 10.5391 1.5C10.5342 1.5 10.5294 1.5 10.5246 1.5C10.5198 1.5 10.5149 1.5 10.5101 1.5C10.5053 1.5 10.5005 1.5 10.4957 1.5C10.4909 1.5 10.486 1.5 10.4812 1.5C10.4764 1.5 10.4716 1.5 10.4668 1.5C10.462 1.5 10.4572 1.5 10.4524 1.5C10.4475 1.5 10.4427 1.5 10.4379 1.5C10.4331 1.5 10.4283 1.5 10.4235 1.5C10.4187 1.5 10.4139 1.5 10.4091 1.5C10.4043 1.5 10.3995 1.5 10.3947 1.5C10.3899 1.5 10.3851 1.5 10.3803 1.5C10.3755 1.5 10.3707 1.5 10.3659 1.5C10.3611 1.5 10.3563 1.5 10.3515 1.5C10.3467 1.5 10.3419 1.5 10.3371 1.5C10.3323 1.5 10.3275 1.5 10.3227 1.5C10.3179 1.5 10.3131 1.5 10.3083 1.5C10.3035 1.5 10.2987 1.5 10.2939 1.5C10.2891 1.5 10.2844 1.5 10.2796 1.5C10.2748 1.5 10.27 1.5 10.2652 1.5C10.2604 1.5 10.2556 1.5 10.2508 1.5C10.2461 1.5 10.2413 1.5 10.2365 1.5C10.2317 1.5 10.2269 1.5 10.2221 1.5C10.2173 1.5 10.2126 1.5 10.2078 1.5C10.203 1.5 10.1982 1.5 10.1934 1.5C10.1887 1.5 10.1839 1.5 10.1791 1.5C10.1743 1.5 10.1695 1.5 10.1648 1.5C10.16 1.5 10.1552 1.5 10.1504 1.5C10.1456 1.5 10.1409 1.5 10.1361 1.5C10.1313 1.5 10.1265 1.5 10.1218 1.5C10.117 1.5 10.1122 1.5 10.1074 1.5C10.1027 1.5 10.0979 1.5 10.0931 1.5C10.0883 1.5 10.0836 1.5 10.0788 1.5C10.074 1.5 10.0693 1.5 10.0645 1.5C10.0597 1.5 10.0549 1.5 10.0502 1.5C10.0454 1.5 10.0406 1.5 10.0359 1.5C10.0311 1.5 10.0263 1.5 10.0215 1.5C10.0168 1.5 10.012 1.5 10.0072 1.5C10.0025 1.5 9.99771 1.5 9.99294 1.5C9.98817 1.5 9.9834 1.5 9.97864 1.5C9.97387 1.5 9.9691 1.5 9.96434 1.5C9.95957 1.5 9.95481 1.5 9.95004 1.5C9.94527 1.5 9.94051 1.5 9.93574 1.5C9.93098 1.5 9.92622 1.5 9.92145 1.5C9.91669 1.5 9.91192 1.5 9.90716 1.5C9.90239 1.5 9.89763 1.5 9.89287 1.5C9.8881 1.5 9.88334 1.5 9.87858 1.5C9.87381 1.5 9.86905 1.5 9.86429 1.5C9.85952 1.5 9.85476 1.5 9.85 1.5C9.84524 1.5 9.84047 1.5 9.83571 1.5C9.83095 1.5 9.82619 1.5 9.82143 1.5C9.81666 1.5 9.8119 1.5 9.80714 1.5C9.80238 1.5 9.79762 1.5 9.79285 1.5C9.78809 1.5 9.78333 1.5 9.77857 1.5C9.77381 1.5 9.76905 1.5 9.76428 1.5C9.75952 1.5 9.75476 1.5 9.75 1.5C9.74524 1.5 9.74048 1.5 9.73572 1.5C9.73095 1.5 9.72619 1.5 9.72143 1.5C9.71667 1.5 9.71191 1.5 9.70715 1.5C9.70238 1.5 9.69762 1.5 9.69286 1.5C9.6881 1.5 9.68334 1.5 9.67857 1.5C9.67381 1.5 9.66905 1.5 9.66429 1.5C9.65953 1.5 9.65476 1.5 9.65 1.5C9.64524 1.5 9.64048 1.5 9.63571 1.5C9.63095 1.5 9.62619 1.5 9.62142 1.5C9.61666 1.5 9.6119 1.5 9.60713 1.5C9.60237 1.5 9.59761 1.5 9.59284 1.5C9.58808 1.5 9.58331 1.5 9.57855 1.5C9.57378 1.5 9.56902 1.5 9.56426 1.5C9.55949 1.5 9.55473 1.5 9.54996 1.5C9.54519 1.5 9.54043 1.5 9.53566 1.5C9.5309 1.5 9.52613 1.5 9.52136 1.5C9.5166 1.5 9.51183 1.5 9.50706 1.5C9.50229 1.5 9.49753 1.5 9.49276 1.5C9.48799 1.5 9.48322 1.5 9.47845 1.5C9.47368 1.5 9.46891 1.5 9.46414 1.5C9.45938 1.5 9.45461 1.5 9.44983 1.5C9.44506 1.5 9.44029 1.5 9.43552 1.5C9.43075 1.5 9.42598 1.5 9.42121 1.5C9.41643 1.5 9.41166 1.5 9.40689 1.5C9.40211 1.5 9.39734 1.5 9.39257 1.5C9.38779 1.5 9.38302 1.5 9.37824 1.5C9.37347 1.5 9.36869 1.5 9.36391 1.5C9.35914 1.5 9.35436 1.5 9.34958 1.5C9.3448 1.5 9.34003 1.5 9.33525 1.5C9.33047 1.5 9.32569 1.5 9.32091 1.5C9.31613 1.5 9.31135 1.5 9.30657 1.5C9.30179 1.5 9.29701 1.5 9.29222 1.5C9.28744 1.5 9.28266 1.5 9.27787 1.5C9.27309 1.5 9.26831 1.5 9.26352 1.5C9.25873 1.5 9.25395 1.5 9.24916 1.5C9.24438 1.5 9.23959 1.5 9.2348 1.5C9.23001 1.5 9.22522 1.5 9.22043 1.5C9.21564 1.5 9.21085 1.5 9.20606 1.5C9.20127 1.5 9.19648 1.5 9.19169 1.5C9.1869 1.5 9.1821 1.5 9.17731 1.5C9.17251 1.5 9.16772 1.5 9.16292 1.5C9.15813 1.5 9.15333 1.5 9.14853 1.5C9.14373 1.5 9.13894 1.5 9.13414 1.5C9.12934 1.5 9.12454 1.5 9.11974 1.5C9.11493 1.5 9.11013 1.5 9.10533 1.5C9.10053 1.5 9.09572 1.5 9.09092 1.5C9.08611 1.5 9.08131 1.5 9.0765 1.5C9.07169 1.5 9.06689 1.5 9.06208 1.5C9.05727 1.5 9.05246 1.5 9.04765 1.5C9.04284 1.5 9.03803 1.5 9.03321 1.5C9.0284 1.5 9.02359 1.5 9.01877 1.5C9.01396 1.5 9.00914 1.5 9.00433 1.5C8.99951 1.5 8.99469 1.5 8.98987 1.5C8.98505 1.5 8.98023 1.5 8.97541 1.5C8.97059 1.5 8.96577 1.5 8.96095 1.5C8.95612 1.5 8.9513 1.5 8.94647 1.5C8.94165 1.5 8.93682 1.5 8.93199 1.5C8.92716 1.5 8.92233 1.5 8.9175 1.5C8.91267 1.5 8.90784 1.5 8.90301 1.5C8.89818 1.5 8.89334 1.5 8.88851 1.5C8.88367 1.5 8.87884 1.5 8.874 1.5C8.86916 1.5 8.86432 1.5 8.85948 1.5C8.85464 1.5 8.8498 1.5 8.84496 1.5C8.84011 1.5 8.83527 1.5 8.83043 1.5C8.82558 1.5 8.82073 1.5 8.81588 1.5C8.81104 1.5 8.80619 1.5 8.80134 1.5C8.79649 1.5 8.79163 1.5 8.78678 1.5C8.78193 1.5 8.77707 1.5 8.77222 1.5C8.76736 1.5 8.7625 1.5 8.75764 1.5C8.75279 1.5 8.74793 1.5 8.74306 1.5C8.7382 1.5 8.73334 1.5 8.72847 1.5C8.72361 1.5 8.71874 1.5 8.71388 1.5C8.70901 1.5 8.70414 1.5 8.69927 1.5C8.6944 1.5 8.68953 1.5 8.68465 1.5C8.67978 1.5 8.6749 1.5 8.67003 1.5C8.66515 1.5 8.66027 1.5 8.65539 1.5C8.65051 1.5 8.64563 1.5 8.64075 1.5C8.63587 1.5 8.63098 1.5 8.6261 1.5C8.62121 1.5 8.61632 1.5 8.61143 1.5C8.60654 1.5 8.60165 1.5 8.59676 1.5C8.59187 1.5 8.58697 1.5 8.58208 1.5C8.57718 1.5 8.57229 1.5 8.56739 1.5C8.56249 1.5 8.55759 1.5 8.55268 1.5C8.54778 1.5 8.54288 1.5 8.53797 1.5C8.53307 1.5 8.52816 1.5 8.52325 1.5C8.51834 1.5 8.51343 1.5 8.50852 1.5C8.5036 1.5 8.49869 1.5 8.49377 1.5C8.48886 1.5 8.48394 1.5 8.47902 1.5C8.4741 1.5 8.46918 1.5 8.46425 1.5C8.45933 1.5 8.4544 1.5 8.44948 1.5C8.44455 1.5 8.43962 1.5 8.43469 1.5C8.42976 1.5 8.42483 1.5 8.41989 1.5C8.41496 1.5 8.41002 1.5 8.40508 1.5C8.40014 1.5 8.3952 1.5 8.39026 1.5C8.38532 1.5 8.38037 1.5 8.37543 1.5C8.37048 1.5 8.36553 1.5 8.36058 1.5C8.35563 1.5 8.35068 1.5 8.34573 1.5C8.34077 1.5 8.33582 1.5 8.33086 1.5C8.3259 1.5 8.32094 1.5 8.31598 1.5C8.31102 1.5 8.30605 1.5 8.30109 1.5C8.29612 1.5 8.29115 1.5 8.28618 1.5C8.28121 1.5 8.27624 1.5 8.27127 1.5C8.26629 1.5 8.26132 1.5 8.25634 1.5C8.25136 1.5 8.24638 1.5 8.2414 1.5C8.23641 1.5 8.23143 1.5 8.22644 1.5C8.22145 1.5 8.21646 1.5 8.21147 1.5C8.20648 1.5 8.20149 1.5 8.19649 1.5C8.1915 1.5 8.1865 1.5 8.1815 1.5C8.1765 1.5 8.1715 1.5 8.16649 1.5C8.16149 1.5 8.15648 1.5 8.15147 1.5C8.14646 1.5 8.14145 1.5 8.13644 1.5C8.13142 1.5 8.12641 1.5 8.12139 1.5C8.11637 1.5 8.11135 1.5 8.10633 1.5C8.10131 1.5 8.09628 1.5 8.09126 1.5C8.08623 1.5 8.0812 1.5 8.07617 1.5C8.07113 1.5 8.0661 1.5 8.06106 1.5C8.05603 1.5 8.05099 1.5 8.04595 1.5C8.0409 1.5 8.03586 1.5 8.03081 1.5C8.02577 1.5 8.02072 1.5 8.01567 1.5C8.01062 1.5 8.00556 1.5 8.00051 1.5C7.99545 1.5 7.99039 1.5 7.98533 1.5C7.98027 1.5 7.97521 1.5 7.97014 1.5C7.96507 1.5 7.96001 1.5 7.95494 1.5C7.94986 1.5 7.94479 1.5 7.93971 1.5C7.93464 1.5 7.92956 1.5 7.92448 1.5C7.9194 1.5 7.91431 1.5 7.90923 1.5C7.90414 1.5 7.89905 1.5 7.89396 1.5C7.88887 1.5 7.88378 1.5 7.87868 1.5C7.87358 1.5 7.86848 1.5 7.86338 1.5C7.85828 1.5 7.85318 1.5 7.84807 1.5C7.84296 1.5 7.83785 1.5 7.83274 1.5C7.82763 1.5 7.82251 1.5 7.81739 1.5C7.81228 1.5 7.80715 1.5 7.80203 1.5C7.79691 1.5 7.79178 1.5 7.78665 1.5C7.78152 1.5 7.77639 1.5 7.77126 1.5C7.76612 1.5 7.76099 1.5 7.75585 1.5C7.75071 1.5 7.74556 1.5 7.74042 1.5C7.73527 1.5 7.73013 1.5 7.72497 1.5C7.71982 1.5 7.71467 1.5 7.70951 1.5C7.70436 1.5 7.6992 1.5 7.69403 1.5C7.68887 1.5 7.68371 1.5 7.67854 1.5C7.67337 1.5 7.6682 1.5 7.66303 1.5C7.65785 1.5 7.65267 1.5 7.6475 1.5C7.64232 1.5 7.63713 1.5 7.63195 1.5C7.62676 1.5 7.62157 1.5 7.61638 1.5C7.61119 1.5 7.606 1.5 7.6008 1.5C7.5956 1.5 7.5904 1.5 7.5852 1.5C7.57999 1.5 7.57479 1.5 7.56958 1.5C7.56437 1.5 7.55915 1.5 7.55394 1.5C7.54872 1.5 7.5435 1.5 7.53828 1.5C7.53306 1.5 7.52784 1.5 7.52261 1.5C7.51738 1.5 7.51215 1.5 7.50692 1.5C7.50168 1.5 7.49644 1.5 7.4912 1.5C7.48596 1.5 7.48072 1.5 7.47547 1.5C7.47023 1.5 7.46498 1.5 7.45972 1.5C7.45447 1.5 7.44922 1.5 7.44396 1.5C7.4387 1.5 7.43343 1.5 7.42817 1.5C7.4229 1.5 7.41763 1.5 7.41236 1.5C7.40709 1.5 7.40181 1.5 7.39654 1.5C7.39126 1.5 7.38598 1.5 7.38069 1.5C7.37541 1.5 7.37012 1.5 7.36483 1.5C7.35953 1.5 7.35424 1.5 7.34894 1.5C7.34364 1.5 7.33834 1.5 7.33303 1.5C7.32773 1.5 7.32242 1.5 7.31711 1.5C7.3118 1.5 7.30648 1.5 7.30117 1.5C7.29585 1.5 7.29053 1.5 7.2852 1.5C7.27987 1.5 7.27455 1.5 7.26921 1.5C7.26388 1.5 7.25855 1.5 7.25321 1.5C7.24787 1.5 7.24253 1.5 7.23718 1.5C7.23184 1.5 7.22649 1.5 7.22113 1.5C7.21578 1.5 7.21043 1.5 7.20507 1.5C7.19971 1.5 7.19434 1.5 7.18898 1.5C7.18361 1.5 7.17824 1.5 7.17287 1.5C7.16749 1.5 7.16212 1.5 7.15673 1.5C7.15135 1.5 7.14597 1.5 7.14058 1.5C7.13519 1.5 7.1298 1.5 7.12441 1.5C7.11901 1.5 7.11361 1.5 7.10821 1.5C7.10281 1.5 7.0974 1.5 7.09199 1.5C7.08658 1.5 7.08117 1.5 7.07575 1.5C7.07034 1.5 7.06492 1.5 7.05949 1.5C7.05407 1.5 7.04864 1.5 7.04321 1.5C7.03778 1.5 7.03234 1.5 7.0269 1.5C7.02146 1.5 7.01602 1.5 7.01057 1.5C7.00513 1.5 6.99968 1.5 6.99422 1.5C6.98877 1.5 6.98331 1.5 6.97785 1.5C6.97239 1.5 6.96692 1.5 6.96145 1.5C6.95599 1.5 6.95051 1.5 6.94504 1.5C6.93956 1.5 6.93408 1.5 6.92859 1.5C6.92311 1.5 6.91762 1.5 6.91213 1.5C6.90664 1.5 6.90114 1.5 6.89564 1.5C6.89014 1.5 6.88464 1.5 6.87913 1.5C6.87362 1.5 6.86811 1.5 6.86259 1.5C6.85708 1.5 6.85156 1.5 6.84604 1.5C6.84051 1.5 6.83499 1.5 6.82945 1.5C6.82392 1.5 6.81839 1.5 6.81285 1.5C6.80731 1.5 6.80177 1.5 6.79622 1.5C6.79067 1.5 6.78512 1.5 6.77956 1.5C6.77401 1.5 6.76845 1.5 6.76289 1.5C6.75732 1.5 6.75176 1.5 6.74618 1.5C6.74061 1.5 6.73504 1.5 6.72946 1.5C6.72388 1.5 6.71829 1.5 6.71271 1.5C6.70712 1.5 6.70153 1.5 6.69593 1.5C6.69033 1.5 6.68473 1.5 6.67913 1.5C6.67353 1.5 6.66792 1.5 6.6623 1.5C6.65669 1.5 6.65107 1.5 6.64545 1.5C6.63983 1.5 6.63421 1.5 6.62858 1.5C6.62295 1.5 6.61731 1.5 6.61168 1.5C6.60604 1.5 6.6004 1.5 6.59475 1.5C6.5891 1.5 6.58345 1.5 6.5778 1.5C6.57214 1.5 6.56648 1.5 6.56082 1.5C6.55516 1.5 6.54949 1.5 6.54382 1.5C6.53815 1.5 6.53247 1.5 6.52679 1.5C6.52111 1.5 6.51542 1.5 6.50973 1.5C6.50404 1.5 6.49835 1.5 6.49265 1.5C6.48695 1.5 6.48125 1.5 6.47554 1.5C6.46984 1.5 6.46413 1.5 6.45841 1.5C6.45269 1.5 6.44697 1.5 6.44125 1.5C6.43552 1.5 6.42979 1.5 6.42406 1.5C6.41833 1.5 6.41259 1.5 6.40685 1.5C6.4011 1.5 6.39536 1.5 6.38961 1.5C6.38385 1.5 6.3781 1.5 6.37234 1.5C6.36658 1.5 6.36081 1.5 6.35504 1.5C6.34927 1.5 6.3435 1.5 6.33772 1.5C6.33194 1.5 6.32616 1.5 6.32037 1.5C6.31458 1.5 6.30879 1.5 6.30299 1.5C6.2972 1.5 6.2914 1.5 6.28559 1.5C6.27978 1.5 6.27397 1.5 6.26816 1.5C6.26234 1.5 6.25652 1.5 6.2507 1.5C6.24487 1.5 6.23904 1.5 6.23321 1.5C6.22737 1.5 6.22154 1.5 6.21569 1.5C6.20985 1.5 6.204 1.5 6.19815 1.5C6.19229 1.5 6.18644 1.5 6.18057 1.5C6.17471 1.5 6.16885 1.5 6.16297 1.5C6.1571 1.5 6.15122 1.5 6.14534 1.5C6.13946 1.5 6.13358 1.5 6.12768 1.5C6.12179 1.5 6.1159 1.5 6.11 1.5C6.1041 1.5 6.09819 1.5 6.09228 1.5C6.08637 1.5 6.08045 1.5 6.07453 1.5C6.06861 1.5 6.06269 1.5 6.05676 1.5C6.05083 1.5 6.0449 1.5 6.03896 1.5C6.03302 1.5 6.02707 1.5 6.02112 1.5C6.01517 1.5 6.00922 1.5 6.00326 1.5C5.9973 1.5 5.99134 1.5 5.98537 1.5C5.9794 1.5 5.97342 1.5 5.96744 1.5C5.96146 1.5 5.95548 1.5 5.94949 1.5C5.9435 1.5 5.93751 1.5 5.93151 1.5C5.92551 1.5 5.9195 1.5 5.9135 1.5C5.90749 1.5 5.90147 1.5 5.89545 1.5C5.88943 1.5 5.88341 1.5 5.87738 1.5C5.87135 1.5 5.86531 1.5 5.85927 1.5C5.85323 1.5 5.84719 1.5 5.84114 1.5C5.83509 1.5 5.82903 1.5 5.82297 1.5C5.81691 1.5 5.81085 1.5 5.80478 1.5C5.79871 1.5 5.79263 1.5 5.78655 1.5C5.78047 1.5 5.77438 1.5 5.76829 1.5C5.7622 1.5 5.7561 1.5 5.75 1.5V2.25ZM18.75 7.25H18V15.25H18.75H19.5V7.25H18.75ZM13.75 20.25V19.5H5.75V20.25V21H13.75V20.25ZM0.75 15.25H1.5V7.25H0.75H0V15.25H0.75ZM5.75 20.25V19.5C3.40279 19.5 1.5 17.5972 1.5 15.25H0.75H0C0 18.4256 2.57436 21 5.75 21V20.25ZM18.75 15.25H18C18 17.5972 16.0972 19.5 13.75 19.5V20.25V21C16.9256 21 19.5 18.4256 19.5 15.25H18.75ZM13.75 2.25V3C16.0972 3 18 4.90279 18 7.25H18.75H19.5C19.5 4.07436 16.9256 1.5 13.75 1.5V2.25ZM2.05447 3.882L1.50029 3.37665C0.568911 4.39802 0 5.75844 0 7.25H0.75H1.5C1.5 6.14678 1.91936 5.14325 2.60865 4.38736L2.05447 3.882Z" fill="#343434"/>
<path d="M3.75 7.25H18.75" stroke="#343434" stroke-width="1.5" stroke-linecap="round" stroke-linejoin="round"/>
<path d="M14.25 0.75L14.25 3.75" stroke="#343434" stroke-width="1.5" stroke-linecap="round" stroke-linejoin="round"/>
<path d="M5.25 0.75L5.25 3.75" stroke="#343434" stroke-width="1.5" stroke-linecap="round" stroke-linejoin="round"/>
<path d="M4.25 11.25H5.25" stroke="#343434" stroke-width="1.5" stroke-linecap="round" stroke-linejoin="round"/>
<path d="M9.25 11.25H10.25" stroke="#343434" stroke-width="1.5" stroke-linecap="round" stroke-linejoin="round"/>
<path d="M14.25 11.25H15.25" stroke="#343434" stroke-width="1.5" stroke-linecap="round" stroke-linejoin="round"/>
<path d="M4.25 15.25H5.25" stroke="#343434" stroke-width="1.5" stroke-linecap="round" stroke-linejoin="round"/>
<path d="M9.25 15.25H10.25" stroke="#343434" stroke-width="1.5" stroke-linecap="round" stroke-linejoin="round"/>
<path d="M14.25 15.25H15.25" stroke="#343434" stroke-width="1.5" stroke-linecap="round" stroke-linejoin="round"/>
</svg>
