<svg width="10" height="10" viewBox="0 0 10 10" fill="none" xmlns="http://www.w3.org/2000/svg">
<path d="M2.5 7.5C3.19036 7.5 3.75 8.05964 3.75 8.75C3.75 9.44036 3.19036 10 2.5 10C1.80964 10 1.25 9.44036 1.25 8.75C1.25 8.05964 1.80964 7.5 2.5 7.5ZM2.5 7.7998C1.97533 7.7998 1.5498 8.22533 1.5498 8.75C1.5498 9.27467 1.97533 9.7002 2.5 9.7002C3.02467 9.7002 3.4502 9.27467 3.4502 8.75C3.4502 8.22533 3.02467 7.7998 2.5 7.7998ZM2.5 0C3.88071 0 5 1.11929 5 2.5C5 3.1361 4.75941 3.71403 4.36816 4.15527L5.97949 5.7666C6.19188 5.59996 6.4591 5.5 6.75 5.5C7.44036 5.5 8 6.05964 8 6.75C8 7.44036 7.44036 8 6.75 8C6.05964 8 5.5 7.44036 5.5 6.75C5.5 6.4591 5.59996 6.19188 5.7666 5.97949L4.15625 4.36816C3.71494 4.7597 3.13636 5 2.5 5C1.11929 5 0 3.88071 0 2.5C0 1.11929 1.11929 0 2.5 0ZM6.75 5.7998C6.22533 5.7998 5.7998 6.22533 5.7998 6.75C5.7998 7.27467 6.22533 7.7002 6.75 7.7002C7.27467 7.7002 7.7002 7.27467 7.7002 6.75C7.7002 6.22533 7.27467 5.7998 6.75 5.7998ZM2.65039 7.5H2.34961V5H2.64941L2.65039 7.5ZM2.5 0.299805C1.28497 0.299805 0.299805 1.28497 0.299805 2.5C0.299805 3.71503 1.28497 4.7002 2.5 4.7002C3.71503 4.7002 4.7002 3.71503 4.7002 2.5C4.7002 1.28497 3.71503 0.299805 2.5 0.299805ZM8.75 1.25C9.44036 1.25 10 1.80964 10 2.5C10 3.19036 9.44036 3.75 8.75 3.75C8.05964 3.75 7.5 3.19036 7.5 2.5C7.5 1.80964 8.05964 1.25 8.75 1.25ZM8.75 1.5498C8.22533 1.5498 7.7998 1.97533 7.7998 2.5C7.7998 3.02467 8.22533 3.4502 8.75 3.4502C9.27467 3.4502 9.7002 3.02467 9.7002 2.5C9.7002 1.97533 9.27467 1.5498 8.75 1.5498ZM7.5 2.65039H5V2.35059L7.5 2.34961V2.65039Z" fill="#343434"/>
</svg>
