<svg width="12" height="11" viewBox="0 0 12 11" fill="none" xmlns="http://www.w3.org/2000/svg">
<path d="M6.05371 0.733398C7.02966 -0.243948 8.61197 -0.244472 9.58789 0.731445L10.0918 1.23535C11.0593 2.20291 11.0689 3.76931 10.1133 4.75L5.19141 9.7998C4.53252 10.4756 3.62961 10.8573 2.68652 10.8574L1.3291 10.8564C0.572713 10.8564 -0.0307882 10.227 0.000976562 9.4707L0.0371094 8.60547L0.0732422 7.73926C0.0984155 7.14248 0.31843 6.57189 0.696289 6.11523L0.868164 5.92773L2.05859 4.73535C2.25378 4.53987 2.57044 4.5392 2.76562 4.73438C2.96081 4.92956 2.96081 5.2469 2.76562 5.44238L1.5752 6.63477L1.4668 6.75391C1.228 7.04271 1.08819 7.40295 1.07227 7.78027L1.03516 8.64551L1 9.51172C0.992159 9.69977 1.14201 9.85735 1.33008 9.85742L2.68652 9.85645C3.36032 9.85636 4.00688 9.58446 4.47754 9.10156L8.03125 5.45312L6.93359 4.35547C6.64092 4.06269 6.64065 3.58789 6.93359 3.29492C7.22656 3.00195 7.70135 3.00224 7.99414 3.29492L9.07812 4.37891L9.39844 4.05176C9.9715 3.46332 9.96515 2.52378 9.38477 1.94336L8.88086 1.43945C8.29532 0.853912 7.34631 0.854051 6.76074 1.44043L4.56836 3.63574C4.37316 3.83113 4.05648 3.83187 3.86133 3.63672C3.66643 3.44165 3.66659 3.12515 3.86133 2.92969L6.05371 0.733398ZM10.9824 9.81152C11.2583 9.81174 11.4814 10.0354 11.4814 10.3115C11.4813 10.5875 11.2582 10.8113 10.9824 10.8115H7.15625C6.88032 10.8115 6.65637 10.5876 6.65625 10.3115C6.65625 10.0353 6.88025 9.81156 7.15625 9.81152H10.9824Z" fill="#2B3F6C"/>
</svg>
