<svg viewBox="0 0 32 30" fill="none" xmlns="http://www.w3.org/2000/svg">
<path d="M16.0244 0.25C16.5185 0.250176 17.0035 0.383868 17.4287 0.636719C17.8533 0.889226 18.2036 1.25108 18.4414 1.68555V1.68652L31.415 25.6572C31.6433 26.0791 31.7583 26.5531 31.749 27.0332C31.7397 27.5133 31.6067 27.9829 31.3623 28.3955C31.1179 28.8081 30.7708 29.1495 30.3555 29.3867C29.9402 29.6239 29.4708 29.7489 28.9932 29.749H3.06934C2.5862 29.7599 2.10865 29.6431 1.68457 29.4102C1.26055 29.1772 0.904986 28.8365 0.65332 28.4219C0.401657 28.0072 0.262775 27.5334 0.250977 27.0479C0.24067 26.6228 0.327831 26.2018 0.504883 25.8174L0.585938 25.6553L13.6055 1.68555L13.6064 1.68652C13.8446 1.25135 14.1947 0.888328 14.6201 0.635742C15.0455 0.383222 15.5304 0.249845 16.0244 0.25ZM16.0244 1.625C15.7757 1.62489 15.5315 1.69156 15.3174 1.81836C15.1033 1.94522 14.9266 2.12739 14.8066 2.3457V2.34668L1.78809 26.3145L1.58691 26.6836H1.65332C1.62934 26.7939 1.61686 26.9067 1.62012 27.0205C1.62722 27.2666 1.69958 27.5066 1.8291 27.7158C1.95863 27.9251 2.14137 28.0964 2.3584 28.2119C2.57253 28.3258 2.81247 28.38 3.05469 28.3721V28.374H28.9932C29.2341 28.3739 29.4714 28.3101 29.6807 28.1904C29.8898 28.0707 30.0647 27.899 30.1875 27.6914C30.3104 27.4837 30.3773 27.2473 30.3818 27.0059C30.3864 26.7644 30.3279 26.5257 30.2129 26.3135L17.2422 2.34863L17.2412 2.34668C17.1214 2.12839 16.9453 1.94634 16.7314 1.81934C16.5174 1.69225 16.2732 1.62512 16.0244 1.625Z" fill="#343434" stroke="white" stroke-width="0.5"/>
<line x1="8.80664" y1="12.3613" x2="23.2176" y2="12.3613" stroke="#343434"/>
<path d="M16.6445 27.098C16.3296 27.098 16.0744 26.8409 16.0744 26.5247V18.1928L13.0154 21.2624C12.7928 21.4857 12.4328 21.4857 12.2101 21.2624C11.9875 21.0388 11.9868 20.6765 12.2093 20.4529L16.2411 16.4045C16.3147 16.3306 16.4046 16.2839 16.4984 16.2588C16.51 16.2557 16.5208 16.2508 16.5326 16.2484C16.6065 16.2337 16.6825 16.2337 16.7564 16.2484C16.7683 16.2508 16.7791 16.2557 16.7907 16.2588C16.8157 16.2655 16.8411 16.2719 16.8653 16.2821C16.873 16.2854 16.8797 16.2901 16.8873 16.2937C16.9132 16.306 16.9386 16.3195 16.9627 16.3359C16.9929 16.3564 17.0222 16.3787 17.0479 16.4045L21.0797 20.4529C21.3023 20.6765 21.3016 21.0388 21.079 21.2624C20.8563 21.4857 20.4963 21.4857 20.2737 21.2624L17.2146 18.1928V26.5247C17.2146 26.8409 16.9594 27.098 16.6445 27.098Z" fill="#343434"/>
<path d="M16.0744 18.1928H16.35C16.35 18.0988 16.2761 18.015 16.1657 17.9838C16.0553 17.9527 15.9325 17.9809 15.8594 18.0543L16.0744 18.1928ZM13.0154 21.2624L13.2305 21.4009L13.2305 21.4009L13.0154 21.2624ZM12.2101 21.2624L11.995 21.4008L11.9951 21.4009L12.2101 21.2624ZM12.2093 20.4529L11.9942 20.3145L11.9942 20.3145L12.2093 20.4529ZM16.2411 16.4045L16.026 16.266L16.026 16.266L16.2411 16.4045ZM16.4984 16.2588L16.5853 16.469L16.5853 16.469L16.4984 16.2588ZM16.5326 16.2484L16.5991 16.4634L16.5992 16.4634L16.5326 16.2484ZM16.7564 16.2484L16.6898 16.4634L16.6899 16.4634L16.7564 16.2484ZM16.7907 16.2588L16.7037 16.469L16.7037 16.469L16.7907 16.2588ZM16.8653 16.2821L16.9934 16.086L16.9933 16.0859L16.8653 16.2821ZM16.8873 16.2937L16.7469 16.4843L16.7471 16.4844L16.8873 16.2937ZM16.9627 16.3359L16.7848 16.5051L16.7849 16.5052L16.9627 16.3359ZM17.0479 16.4045L17.2631 16.266L17.263 16.2659L17.0479 16.4045ZM21.0797 20.4529L21.2949 20.3145L21.2948 20.3145L21.0797 20.4529ZM21.079 21.2624L21.294 21.4009L21.2941 21.4008L21.079 21.2624ZM20.2737 21.2624L20.0586 21.4009L20.0586 21.4009L20.2737 21.2624ZM17.2146 18.1928L17.4297 18.0543C17.3565 17.9809 17.2337 17.9527 17.1233 17.9838C17.0129 18.015 16.9391 18.0988 16.9391 18.1928H17.2146ZM16.6445 27.098V26.8765C16.5363 26.8765 16.35 26.7676 16.35 26.5247H16.0744L15.7989 26.5247C15.7989 26.9142 16.1229 27.3195 16.6445 27.3195V27.098ZM16.0744 26.5247H16.35L16.35 18.1928H16.0744H15.7989L15.7989 26.5247L16.0744 26.5247ZM16.0744 18.1928L15.8594 18.0543L12.8003 21.1239L13.0154 21.2624L13.2305 21.4009L16.2895 18.3313L16.0744 18.1928ZM13.0154 21.2624L12.8003 21.1239C12.7358 21.1886 12.6663 21.2084 12.6128 21.2084C12.5593 21.2084 12.4897 21.1886 12.4251 21.1238L12.2101 21.2624L11.9951 21.4009C12.1531 21.5594 12.375 21.6514 12.6128 21.6514C12.8506 21.6514 13.0724 21.5594 13.2305 21.4009L13.0154 21.2624ZM12.2101 21.2624L12.4252 21.1239C12.2829 20.9811 12.2828 20.7337 12.4245 20.5913L12.2093 20.4529L11.9942 20.3145C11.6908 20.6193 11.692 21.0966 11.995 21.4008L12.2101 21.2624ZM12.2093 20.4529L12.4245 20.5914L16.4563 16.5429L16.2411 16.4045L16.026 16.266L11.9942 20.3145L12.2093 20.4529ZM16.2411 16.4045L16.4562 16.5429C16.4954 16.5036 16.5402 16.4811 16.5853 16.469L16.4984 16.2588L16.4115 16.0486C16.269 16.0867 16.1339 16.1577 16.026 16.266L16.2411 16.4045ZM16.4984 16.2588L16.5853 16.469C16.5966 16.466 16.6059 16.463 16.6118 16.4611C16.6148 16.4601 16.6175 16.4592 16.6192 16.4586C16.6216 16.4578 16.6218 16.4577 16.6229 16.4573C16.6244 16.4568 16.6224 16.4575 16.6189 16.4586C16.6151 16.4597 16.6082 16.4616 16.5991 16.4634L16.5326 16.2484L16.4662 16.0335C16.4376 16.0392 16.4149 16.047 16.408 16.0494C16.4063 16.05 16.4036 16.0509 16.4032 16.051C16.4021 16.0514 16.4019 16.0515 16.4021 16.0514C16.4024 16.0513 16.406 16.0501 16.4114 16.0486L16.4984 16.2588ZM16.5326 16.2484L16.5992 16.4634C16.6294 16.4573 16.6597 16.4573 16.6898 16.4634L16.7564 16.2484L16.823 16.0335C16.7054 16.01 16.5837 16.01 16.4661 16.0335L16.5326 16.2484ZM16.7564 16.2484L16.6899 16.4634C16.6808 16.4616 16.674 16.4597 16.6702 16.4586C16.6667 16.4575 16.6646 16.4568 16.6662 16.4573C16.6673 16.4577 16.6675 16.4578 16.6699 16.4586C16.6716 16.4592 16.6742 16.4601 16.6773 16.4611C16.6832 16.463 16.6925 16.466 16.7037 16.469L16.7907 16.2588L16.8776 16.0486C16.8831 16.0501 16.8867 16.0513 16.8869 16.0514C16.8871 16.0515 16.887 16.0514 16.8859 16.051C16.8854 16.0509 16.8828 16.05 16.8811 16.0494C16.8741 16.047 16.8514 16.0392 16.8229 16.0335L16.7564 16.2484ZM16.7907 16.2588L16.7037 16.469C16.7118 16.4712 16.7158 16.4722 16.7216 16.4738C16.7266 16.4752 16.7302 16.4762 16.733 16.477C16.7387 16.4787 16.7392 16.4791 16.7373 16.4782L16.8653 16.2821L16.9933 16.0859C16.9448 16.0655 16.8946 16.0532 16.8776 16.0486L16.7907 16.2588ZM16.8653 16.2821L16.7371 16.4782C16.7295 16.475 16.7239 16.4721 16.7208 16.4705C16.7179 16.469 16.7161 16.468 16.7173 16.4687C16.7176 16.4688 16.7178 16.469 16.7183 16.4692C16.7188 16.4695 16.7194 16.4698 16.7201 16.4702C16.7215 16.471 16.7235 16.4722 16.7259 16.4735C16.7305 16.4761 16.7379 16.48 16.7469 16.4843L16.8873 16.2937L17.0277 16.1031C17.033 16.1056 17.0366 16.1076 17.0377 16.1082C17.038 16.1083 17.0391 16.109 17.0354 16.1069C17.033 16.1055 17.0276 16.1025 17.0211 16.099C17.0143 16.0955 17.0049 16.0908 16.9934 16.086L16.8653 16.2821ZM16.8873 16.2937L16.7471 16.4844C16.7648 16.4928 16.7763 16.4993 16.7848 16.5051L16.9627 16.3359L17.1406 16.1668C17.1008 16.1398 17.0615 16.1192 17.0276 16.1031L16.8873 16.2937ZM16.9627 16.3359L16.7849 16.5052C16.8078 16.5207 16.8225 16.5326 16.8329 16.543L17.0479 16.4045L17.263 16.2659C17.222 16.2248 17.178 16.1922 17.1405 16.1667L16.9627 16.3359ZM17.0479 16.4045L16.8328 16.5429L20.8646 20.5914L21.0797 20.4529L21.2948 20.3145L17.2631 16.266L17.0479 16.4045ZM21.0797 20.4529L20.8645 20.5913C21.0063 20.7337 21.0061 20.9811 20.8638 21.1239L21.079 21.2624L21.2941 21.4008C21.597 21.0966 21.5982 20.6193 21.2949 20.3145L21.0797 20.4529ZM21.079 21.2624L20.8639 21.1238C20.7993 21.1886 20.7298 21.2084 20.6763 21.2084C20.6228 21.2084 20.5533 21.1886 20.4887 21.1239L20.2737 21.2624L20.0586 21.4009C20.2167 21.5594 20.4385 21.6514 20.6763 21.6514C20.9141 21.6514 21.1359 21.5594 21.294 21.4009L21.079 21.2624ZM20.2737 21.2624L20.4887 21.1239L17.4297 18.0543L17.2146 18.1928L16.9996 18.3313L20.0586 21.4009L20.2737 21.2624ZM17.2146 18.1928H16.9391L16.9391 26.5247H17.2146L17.4902 26.5247L17.4902 18.1928H17.2146ZM17.2146 26.5247H16.9391C16.9391 26.7676 16.7527 26.8765 16.6445 26.8765V27.098V27.3195C17.1661 27.3195 17.4902 26.9142 17.4902 26.5247L17.2146 26.5247Z" fill="white"/>
</svg>
