<svg viewBox="0 0 24 38" fill="none" xmlns="http://www.w3.org/2000/svg">
<path d="M12.0171 0C13.8604 0 15.354 1.5007 15.354 3.34961V5.56543C15.3505 6.71146 14.765 7.77704 13.8013 8.3916C15.7815 9.14754 17.0895 11.0509 17.0913 13.1787V17.6182H20.5269L20.5288 12.3682C20.5289 12.1192 20.7293 11.916 20.979 11.916C21.2269 11.9161 21.4291 12.1193 21.4292 12.3682V17.6182H22.9458C23.5331 17.6307 24.0021 18.1135 23.9985 18.7031V22.0205C24.0073 22.31 23.8968 22.5891 23.6929 22.7939C23.4889 22.9987 23.2109 23.1125 22.9243 23.1055H21.5454L20.1938 36.7891H22.9448V36.791C23.1946 36.791 23.396 36.9924 23.396 37.2432C23.396 37.4921 23.1946 37.6953 22.9448 37.6953H1.03467C0.786682 37.6953 0.584504 37.4921 0.584473 37.2432C0.584473 36.9924 0.786663 36.791 1.03467 36.791H3.78174L2.43115 23.1064H1.08057V23.1055C0.792108 23.1143 0.512127 23.0007 0.308105 22.7959C0.104153 22.5911 -0.00830411 22.3101 0.000488281 22.0205V18.7031C-0.00127051 18.4153 0.11169 18.1396 0.313965 17.9365C0.516135 17.7318 0.789958 17.6183 1.07471 17.6182H2.59326V16.0625C2.5634 15.9284 2.59503 15.7874 2.68115 15.6797C2.76557 15.572 2.89554 15.5098 3.03271 15.5098C3.16991 15.5098 3.29809 15.572 3.38428 15.6797C3.46864 15.7873 3.50276 15.9284 3.47119 16.0625V17.6182H6.90576L6.90771 13.1787C6.90955 11.0509 8.21828 9.14525 10.1987 8.38574C9.25067 7.76238 8.68018 6.70266 8.68018 5.56543V3.34961C8.6802 1.50081 10.1756 0.000105223 12.0171 0ZM1.07568 18.5C0.96663 18.5018 0.878418 18.5919 0.878418 18.7031V22.0615C0.882886 22.1018 0.900323 22.1398 0.929199 22.1689C0.958348 22.1982 0.99579 22.2182 1.03564 22.2236H16.6157C16.7493 22.1937 16.8903 22.226 16.9976 22.3125C17.1028 22.3972 17.1664 22.5276 17.1665 22.665C17.1665 22.8027 17.103 22.932 16.9976 23.0186C16.8903 23.1033 16.7494 23.1372 16.6157 23.1055H3.32373L4.67432 36.7891L19.3169 36.791L20.6685 23.1074L18.3765 23.1055C18.2428 23.1373 18.1019 23.1033 17.9946 23.0186C17.8891 22.932 17.8257 22.8028 17.8257 22.665C17.8258 22.5275 17.8893 22.3972 17.9946 22.3125C18.1019 22.226 18.2428 22.1936 18.3765 22.2236H22.9653C23.005 22.2181 23.0417 22.1981 23.0708 22.1689C23.0998 22.1398 23.1171 22.1019 23.1216 22.0615V18.7031C23.1216 18.5919 23.0334 18.5018 22.9243 18.5H1.07568ZM18.7271 24.4082C18.8625 24.4206 18.9842 24.4954 19.0581 24.6084C19.1336 24.7213 19.1534 24.8607 19.1147 24.9912L18.1245 35.0439C18.0964 35.2734 17.9028 35.4449 17.6743 35.4434H6.29932C6.05131 35.4434 5.84814 35.2402 5.84814 34.9912C5.84824 34.7405 6.05137 34.5391 6.29932 34.5391L17.2847 34.5605L18.2349 24.9043H18.2368C18.2229 24.7702 18.2689 24.6361 18.3638 24.5391C18.4604 24.4439 18.5919 24.3942 18.7271 24.4082ZM11.9995 8.94629C9.67274 8.94646 7.78585 10.8409 7.78564 13.1787V17.6182H16.2144V13.1787C16.2142 10.8408 14.3264 8.94629 11.9995 8.94629ZM4.54053 8.36328C4.71466 8.19736 4.98947 8.19731 5.16357 8.36328C5.32871 8.53799 5.32855 8.81347 5.16357 8.98828V8.98633L3.53271 10.624V14.2861C3.53271 14.4061 3.48512 14.5207 3.40088 14.6055C3.31648 14.6902 3.20208 14.7382 3.08252 14.7383C2.84331 14.7259 2.65479 14.5263 2.65479 14.2861V10.4434C2.65313 10.3252 2.7013 10.212 2.78564 10.1309L4.54053 8.36328ZM18.9458 8.37207C19.1199 8.20611 19.3928 8.20618 19.5669 8.37207H19.5688L21.3237 10.1396C21.489 10.3144 21.489 10.5898 21.3237 10.7646C21.1496 10.9306 20.8758 10.9306 20.7017 10.7646L18.9458 8.99707C18.7807 8.82224 18.7806 8.5468 18.9458 8.37207ZM11.9995 0.904297C11.3523 0.899062 10.7282 1.1552 10.271 1.61426C9.81201 2.07507 9.55878 2.69987 9.56396 3.34961V5.56641C9.55707 6.92595 10.6453 8.03436 11.9995 8.04688C13.3643 8.04688 14.4711 6.93667 14.4712 5.56641V3.34961C14.4587 1.99004 13.3537 0.897245 11.9995 0.904297Z" fill="#343434"/>
</svg>
