<svg viewBox="0 0 53 44" fill="none" xmlns="http://www.w3.org/2000/svg">
<path d="M50.6514 30.6654H40.4981C40.5053 30.257 40.5102 29.8365 40.5222 29.3917C40.5967 25.7349 40.6881 21.1812 38.1461 18.5714C36.8042 17.1986 34.8466 16.4977 32.3287 16.4977H29.1831C28.9378 16.4977 28.7142 16.6717 28.6589 16.9134C28.4136 17.9212 27.4901 18.6511 26.4608 18.6511C25.4315 18.6511 24.508 17.9212 24.2627 16.9134C24.2002 16.6717 23.9862 16.4977 23.7385 16.4977H20.6602C18.1183 16.4977 16.1415 17.2034 14.7875 18.5883C12.2335 21.2058 12.3177 25.7668 12.3922 29.4352C12.3994 29.863 12.4115 30.2715 12.4115 30.6654H2.26061C1.0173 30.6654 0 31.6854 0 32.9374C0 34.1869 1.01484 35.2093 2.26061 35.2093H4.51401V41.3724C4.51401 42.3754 5.32686 43.1923 6.32489 43.1923H46.5872C47.5853 43.1923 48.3981 42.3754 48.3981 41.3724V35.2093H50.6515C51.8948 35.2093 52.9121 34.1894 52.9121 32.9374C52.9097 31.6806 51.8948 30.6654 50.6514 30.6654ZM26.4558 19.7337C26.7636 19.7337 27.0642 19.6902 27.348 19.6105L29.0651 26.6702L26.7756 28.7802L24.6954 26.6895L26.3884 19.7363C26.4076 19.7339 26.4317 19.7337 26.4558 19.7337ZM13.4643 29.4088C13.3969 25.9502 13.3176 21.6382 15.5517 19.347C16.7085 18.1579 18.3774 17.5827 20.65 17.5827H23.3291C23.6802 18.5035 24.4137 19.2044 25.3108 19.5307L23.5624 26.7209C23.5192 26.907 23.5745 27.098 23.7043 27.2333L26.3641 29.9064C26.4699 30.0128 26.6094 30.0683 26.7465 30.0683C26.8764 30.0683 27.0062 30.02 27.1096 29.9257L30.022 27.2526C30.1687 27.1173 30.2312 26.9191 30.1831 26.7209L28.3361 19.1415C28.8845 18.7645 29.3149 18.2255 29.5602 17.5826H32.3115C34.5576 17.5826 36.2074 18.153 37.3545 19.3324C39.5838 21.6164 39.4901 25.9163 39.4227 29.3676C39.4155 29.8196 39.4035 30.2474 39.3987 30.6606H34.8919V27.654C34.8919 27.3567 34.6514 27.1102 34.3508 27.1102C34.0502 27.1102 33.8097 27.3518 33.8097 27.654V30.6606L19.1301 30.6655V27.6588C19.1301 27.3615 18.8897 27.115 18.589 27.115C18.2932 27.115 18.0479 27.3567 18.0479 27.6588V30.6655H13.4858C13.4834 30.257 13.4787 29.8438 13.4643 29.4088ZM5.59812 41.3701V35.207H10.9057V42.1002H6.3244C5.92279 42.1002 5.59812 41.7713 5.59812 41.3701ZM40.9309 35.207V42.1002H11.9812V35.207H40.9309ZM47.3134 41.3701C47.3134 41.7713 46.9863 42.1 46.5871 42.1H42.013V35.2067H47.3134V41.3701ZM50.6514 34.1192H2.26C1.60827 34.1192 1.07678 33.5875 1.07678 32.9301C1.07678 32.2751 1.60586 31.7409 2.26 31.7409H50.6514C51.3031 31.7409 51.8346 32.2726 51.8346 32.9301C51.8274 33.585 51.2983 34.1192 50.6514 34.1192ZM26.4489 14.5785C30.4506 14.5785 33.7019 11.306 33.7019 7.28925C33.7019 3.27475 30.4457 0 26.4489 0C22.4472 0 19.1959 3.27252 19.1959 7.28925C19.1983 11.3062 22.4546 14.5785 26.4489 14.5785ZM26.4489 1.08463C29.8542 1.08463 32.6245 3.86891 32.6245 7.2911C32.6245 10.7133 29.8541 13.4976 26.4489 13.4976C23.0438 13.4976 20.2733 10.7133 20.2733 7.2911C20.2757 3.86879 23.051 1.08463 26.4489 1.08463Z" fill="black"/>
<ellipse cx="26.4286" cy="7.28024" rx="1.28553" ry="1.29196" fill="#8F69FF"/>
<path d="M26.4287 7.28044L28.9998 4.69653" stroke="#8F69FF" stroke-linecap="round"/>
</svg>
