<svg viewBox="0 0 13 17" fill="none" xmlns="http://www.w3.org/2000/svg">
<path d="M8.95801 0C11.144 0 12.9158 1.77203 12.916 3.95801V14.9316C12.916 16.0852 11.6404 16.7824 10.6699 16.1592L7.02148 13.8135C6.67839 13.593 6.23762 13.593 5.89453 13.8135L2.24707 16.1592C1.27655 16.783 2.6262e-07 16.0854 0 14.9316V10.833C0.000175809 10.488 0.279931 10.208 0.625 10.208C0.96992 10.2082 1.24982 10.4881 1.25 10.833V14.9316C1.25 15.0963 1.43171 15.1962 1.57031 15.1074L5.21875 12.7617C5.97352 12.2767 6.9425 12.2767 7.69727 12.7617L11.3457 15.1074C11.4843 15.1962 11.666 15.0963 11.666 14.9316V3.95801C11.6658 2.46239 10.4537 1.25 8.95801 1.25H3.95801C2.46235 1.25 1.25018 2.46239 1.25 3.95801V7.08301C1.25 7.42808 0.970028 7.70783 0.625 7.70801C0.279822 7.70801 0 7.42819 0 7.08301V3.95801C0.000175928 1.77203 1.77199 1.93269e-07 3.95801 0H8.95801ZM8.95801 4.58301C9.30308 4.58301 9.58283 4.86298 9.58301 5.20801C9.58301 5.55319 9.30319 5.83301 8.95801 5.83301H3.95801C3.61283 5.83301 3.33301 5.55319 3.33301 5.20801C3.33318 4.86298 3.61294 4.58301 3.95801 4.58301H8.95801Z" fill="#707070"/>
</svg>
