<svg width="9" height="10" viewBox="0 0 9 10" fill="none" xmlns="http://www.w3.org/2000/svg">
<path d="M0 4.97156V0.955986C1.32809e-08 0.945403 0.00115852 0.934979 0.00200893 0.924614C0.00853242 0.823572 0.0540214 0.725184 0.138616 0.655216L0.143638 0.660693L0.144141 0.660196C0.139587 0.65468 0.139068 0.654764 0.139118 0.654718L0.139621 0.65422L0.140625 0.653722C0.141327 0.653148 0.142239 0.652456 0.143136 0.65173C0.144921 0.650286 0.147115 0.648271 0.149665 0.646253C0.154795 0.642193 0.161582 0.636999 0.169754 0.630816C0.186242 0.618342 0.208846 0.6017 0.237556 0.582015C0.295067 0.542585 0.377138 0.490481 0.482645 0.433622C0.693662 0.319914 1.00018 0.186557 1.39319 0.0979946C2.18645 -0.080741 3.30609 -0.0703278 4.67227 0.606913C5.8774 1.20436 6.81506 1.19402 7.43605 1.05408C7.75007 0.983314 7.9901 0.877615 8.14872 0.792156C8.22795 0.749461 8.2866 0.711879 8.32349 0.686588C8.34191 0.673959 8.35481 0.664267 8.36217 0.658702L8.3692 0.653722C8.48404 0.559975 8.64318 0.539814 8.77801 0.602432C8.91352 0.665382 9 0.80064 9 0.949014V7.06799C8.99997 7.18143 8.94927 7.28915 8.86138 7.36179L8.61429 7.06799L8.86088 7.36179L8.85938 7.36328C8.85869 7.36384 8.85773 7.36458 8.85686 7.36527C8.8551 7.3667 8.85283 7.36828 8.85034 7.37025C8.8452 7.37432 8.83847 7.37947 8.83025 7.38569C8.81378 7.39815 8.79114 7.41481 8.76244 7.43449C8.70492 7.47393 8.62291 7.5265 8.51735 7.58338C8.30634 7.69709 7.99982 7.83045 7.60681 7.91901C6.81357 8.09773 5.69384 8.08727 4.32773 7.41009C3.1226 6.81265 2.18494 6.82299 1.56395 6.96292C1.24989 7.03371 1.00989 7.13939 0.851284 7.22485C0.821757 7.24076 0.795164 7.25606 0.771429 7.27016V9.61756C0.771365 9.82872 0.598699 10 0.385714 10C0.172729 10 6.36016e-05 9.82872 0 9.61756V7.06799C0 6.95456 0.0507722 6.84685 0.138616 6.77419L0.385714 7.06799C0.140731 6.77651 0.138933 6.77388 0.139118 6.77369L0.139621 6.7732L0.140625 6.7727C0.141327 6.77212 0.142239 6.77143 0.143136 6.77071C0.144922 6.76926 0.147114 6.76725 0.149665 6.76523C0.154795 6.76117 0.161581 6.75598 0.169754 6.74979C0.186241 6.73732 0.208846 6.72068 0.237556 6.70099C0.295067 6.66156 0.377139 6.60946 0.482645 6.5526C0.693662 6.43889 1.00018 6.30553 1.39319 6.21697C2.18645 6.03824 3.30609 6.04865 4.67227 6.72589C5.8774 7.32333 6.81506 7.313 7.43605 7.17306C7.75007 7.10229 7.9901 6.99659 8.14872 6.91113C8.17829 6.8952 8.20481 6.87945 8.22857 6.86532V1.59985C8.05493 1.67289 7.84744 1.74581 7.60681 1.80003C6.81357 1.97875 5.69384 1.9683 4.32773 1.29112C3.1226 0.693671 2.18494 0.70401 1.56395 0.843944C1.2499 0.914728 1.00989 1.02041 0.851284 1.10587C0.821758 1.12178 0.795164 1.13708 0.771429 1.15119V4.97156C0.771429 5.18278 0.598738 5.354 0.385714 5.354C0.17269 5.354 0 5.18278 0 4.97156Z" fill="#8F69FF"/>
</svg>
