<svg viewBox="0 0 27 20" fill="none" xmlns="http://www.w3.org/2000/svg">
<path fill-rule="evenodd" clip-rule="evenodd" d="M7.85231 2.8102C7.93082 2.73085 8.00229 2.67992 8.00229 2.55201C8.00229 2.48805 7.97885 2.4241 7.93082 2.37672L6.46738 0.897438C6.3713 0.80032 6.21195 0.80032 6.11938 0.897438L0.899606 6.17494C0.803528 6.27206 0.803528 6.43314 0.899606 6.52672L2.36304 8.006C2.45912 8.10312 2.61847 8.10312 2.71105 8.006L7.85463 2.80672L7.85231 2.8102ZM24.6532 8.01555L26.1167 6.53626C26.1647 6.4877 26.1882 6.42375 26.1882 6.36098C26.1882 6.29702 26.1647 6.23306 26.1167 6.18569L20.8945 0.906971C20.7984 0.809853 20.6391 0.809853 20.5465 0.906971L19.0831 2.38626C19.035 2.43482 19.0116 2.49877 19.0116 2.56154C19.0116 2.6255 19.035 2.68946 19.0831 2.73683L24.3052 8.01555C24.4013 8.11267 24.5607 8.11267 24.6532 8.01555ZM6.94076 13.0644L5.95068 14.0652C5.79718 14.2204 5.7222 14.4229 5.7222 14.6266C5.7222 15.3325 6.57049 15.6784 7.05674 15.1881L8.52018 13.7088C9.00292 13.2208 8.67016 12.3598 7.96479 12.3598C7.76326 12.3598 7.56291 12.4356 7.4094 12.5907L6.93604 13.0692L6.94076 13.0644ZM6.36194 11.3601C6.51543 11.5153 6.59042 11.7178 6.59042 11.9215C6.59042 12.1252 6.51543 12.3278 6.36194 12.4829L5.37186 13.4837C5.21837 13.6389 5.018 13.7147 4.81647 13.7147C4.1111 13.7147 3.77836 12.8537 4.26108 12.3657L5.25116 11.3649C5.55462 11.0581 6.05494 11.0581 6.3584 11.3649L6.36194 11.3601ZM7.6344 15.7684L9.50325 13.8793C9.98599 13.3913 10.8378 13.7277 10.8378 14.4407C10.8378 14.6444 10.7628 14.8469 10.6093 15.0021L8.74047 16.8912C8.25772 17.3791 7.40592 17.0428 7.40592 16.3298C7.40592 16.126 7.48091 15.9235 7.6344 15.7684ZM9.31929 17.4727C9.15408 17.6397 9.00998 17.7581 9.00998 18.0305C9.00998 18.567 9.65206 18.8193 10.0153 18.4521L11.6826 16.7668C11.7963 16.6519 11.8537 16.5003 11.8537 16.3451C11.8537 15.811 11.2151 15.554 10.846 15.9235L9.31578 17.4703L9.31929 17.4727ZM11.1108 18.5161L10.5953 19.0372C9.71649 19.9255 8.19213 19.3037 8.19213 18.0305V17.9429C7.304 17.9488 6.58456 17.224 6.58456 16.3274V16.2362C5.66713 16.2883 4.89616 15.5576 4.89616 14.6231V14.5354C3.97873 14.5876 3.20776 13.8532 3.20776 12.9223C3.20776 12.5066 3.3636 12.0944 3.67527 11.7794L4.05606 11.3945C3.56396 10.8971 3.55808 10.5394 3.56162 10.0609C3.56162 9.82166 3.56162 9.57888 3.34251 9.35503L2.85041 8.8576C2.47898 8.97603 2.06186 8.88484 1.77364 8.59348L0.310203 7.1142C-0.103401 6.69611 -0.103401 6.01037 0.310203 5.59228L5.53237 0.313562C5.94598 -0.104521 6.62438 -0.104521 7.03798 0.313562L8.50142 1.79285C8.84003 2.13513 8.90683 2.65745 8.68186 3.07199L9.11421 3.50902C9.24895 3.64523 9.40244 3.72458 9.59461 3.7305L10.6773 3.75182C11.2057 3.48533 11.7505 3.19754 12.1946 2.92748C12.668 2.63967 13.2023 2.56625 13.733 2.7214L17.1708 3.71034C17.4438 3.7897 17.7051 3.71982 17.9031 3.51611L18.3202 3.08854C18.2335 2.92746 18.1878 2.74625 18.1878 2.56739C18.1878 2.29143 18.2897 2.01548 18.4971 1.80585L19.9605 0.326562C20.3741 -0.0915215 21.0525 -0.0915215 21.4662 0.326562L26.6883 5.60528C26.8957 5.81492 27 6.09089 27 6.36683C27 6.64277 26.8981 6.91874 26.6907 7.12838L25.2273 8.60766C24.939 8.89902 24.516 8.99257 24.1411 8.86823L23.3947 9.62268C23.2986 9.7198 23.2483 9.80152 23.2084 9.93534C22.8007 11.2997 22.0121 12.1181 20.8357 12.7399C21.5891 13.8497 20.8147 15.3894 19.4531 15.3894C19.3207 15.3894 19.1895 15.3716 19.0606 15.3408C19.0032 16.235 18.2744 16.9267 17.3898 16.9267C17.2574 16.9267 17.1262 16.909 16.9973 16.8782C16.9317 17.9335 15.9439 18.6583 14.9339 18.4155C14.8414 19.8735 13.0897 20.526 12.0785 19.5039L11.1072 18.5221L11.1108 18.5161ZM11.5725 14.9596C11.6299 14.7926 11.6568 14.6173 11.6568 14.4408C11.6568 13.3275 10.5801 12.5612 9.54781 12.907C9.39783 11.8731 8.33276 11.2667 7.38251 11.6398C7.25011 10.864 6.58458 10.3026 5.80776 10.3026C5.36368 10.3026 4.97705 10.472 4.64428 10.8095L4.60561 10.7704C4.09827 10.2576 4.74973 9.60025 3.93072 8.77239L3.52296 8.36022L8.14523 3.6879L8.5471 4.09413C8.73575 4.28482 8.96071 4.42814 9.21615 4.49681C9.20092 4.50629 9.18568 4.51458 9.16811 4.5205C8.62561 4.81778 8.30457 5.36021 8.30107 5.98438C8.30107 6.63341 8.2706 7.51224 8.17218 8.0677C8.01635 8.8257 8.23194 9.38711 8.64904 9.72345C9.10482 10.093 9.73169 10.1333 10.2988 9.9544C11.0908 9.70332 11.918 8.98086 12.3293 7.72539C12.7101 7.74908 13.0885 7.68039 13.4576 7.543C13.7787 8.08901 14.1114 8.49168 14.5403 8.78303C15.023 9.11346 15.6018 9.28995 16.3939 9.3622L20.0683 13.0764C20.5991 13.6129 20.2335 14.5557 19.4626 14.5557C19.2435 14.5557 19.0244 14.474 18.8568 14.3046L16.7536 12.1787C16.5943 12.0176 16.3342 12.0176 16.1748 12.1787C16.0154 12.3397 16.0155 12.6027 16.1748 12.7637L18.005 14.6138C18.5358 15.1503 18.1702 16.093 17.3993 16.093C17.1801 16.093 16.9611 16.0113 16.7935 15.8419L15.3992 14.4325C15.2398 14.2715 14.9797 14.2715 14.8204 14.4325C14.661 14.5936 14.661 14.8565 14.8204 15.0176L15.9417 16.1511C16.1069 16.3181 16.1901 16.5419 16.1901 16.7634C16.1901 17.5427 15.2574 17.9123 14.7267 17.3757L14.0846 16.7267C13.9252 16.5656 13.6651 16.5656 13.5058 16.7267C13.3464 16.8878 13.3464 17.1507 13.5058 17.3118L13.8772 17.6872C14.0424 17.8542 14.1256 18.0781 14.1256 18.2995C14.1256 19.0789 13.1929 19.4484 12.6621 18.9118L11.6908 17.93L12.2638 17.3508C12.5368 17.0749 12.675 16.7077 12.675 16.3441C12.675 15.6738 12.2216 15.0981 11.5736 14.956L11.5725 14.9596ZM16.5814 8.55203C15.8702 8.49755 15.3757 8.36372 14.9914 8.10078C14.6071 7.84021 14.3106 7.43398 13.9955 6.84298C13.8877 6.62742 13.6475 6.54925 13.4471 6.64874C13.0183 6.8643 12.5707 6.97326 12.1243 6.8643C11.9052 6.81219 11.6861 6.94958 11.6357 7.1675C11.3533 8.32227 10.6819 8.96539 10.0516 9.16553C9.75513 9.2591 9.39191 9.26857 9.15756 9.08026C8.97477 8.93221 8.88455 8.64914 8.96891 8.237C8.97243 8.2216 8.97829 8.2062 8.97829 8.19199C9.08608 7.55836 9.11303 6.72811 9.11655 5.98193C9.11655 5.66333 9.2759 5.39684 9.55475 5.24524C10.4874 4.73596 11.6872 4.20181 12.6233 3.62976C12.908 3.45684 13.1962 3.41776 13.5173 3.50896L16.955 4.4979C17.2339 4.57726 17.5163 4.57963 17.7799 4.50975C18.2743 4.37591 18.5333 4.04549 18.8742 3.69371L23.4872 8.35663L22.8217 9.02937C22.6389 9.21414 22.5065 9.4356 22.4315 9.6879C22.0624 10.922 21.3488 11.5675 20.2603 12.104L16.8649 8.67181C16.7864 8.59246 16.688 8.55337 16.586 8.551L16.5814 8.55203Z" fill="black"/>
</svg>
