<svg viewBox="0 0 18 18" fill="none" xmlns="http://www.w3.org/2000/svg">
<path d="M13.125 0C15.7712 0.000176082 17.916 2.14574 17.916 4.79199V9.79199C17.9158 12.4381 15.7711 14.5828 13.125 14.583H5.37598C5.13969 14.5831 4.91015 14.664 4.72559 14.8115L2.36816 16.6963C1.41335 17.4597 0.000125798 16.7802 0 15.5576V9.3418C0 8.99662 0.279822 8.7168 0.625 8.7168C0.970028 8.71697 1.25 8.99673 1.25 9.3418V15.5576C1.25013 15.7322 1.45152 15.8288 1.58789 15.7197L3.94434 13.835C4.35054 13.5101 4.85586 13.3331 5.37598 13.333H13.125C15.0807 13.3328 16.6658 11.7477 16.666 9.79199V4.79199C16.666 2.83609 15.0809 1.25018 13.125 1.25H4.79102C2.83516 1.25018 1.25 2.83609 1.25 4.79199V6.1377C1.24986 6.48265 0.969941 6.76252 0.625 6.7627C0.279909 6.7627 0.000140986 6.48275 0 6.1377V4.79199C0 2.14574 2.1448 0.000175857 4.79102 0H13.125ZM4.83301 6.29199C5.40818 6.29208 5.87491 6.75784 5.875 7.33301C5.875 7.90825 5.40823 8.37491 4.83301 8.375C4.25771 8.375 3.79102 7.9083 3.79102 7.33301C3.7911 6.75779 4.25777 6.29199 4.83301 6.29199ZM9 6.29199C9.57502 6.29226 10.0409 6.75795 10.041 7.33301C10.041 7.90814 9.57507 8.37474 9 8.375C8.4247 8.375 7.95801 7.9083 7.95801 7.33301C7.9581 6.75779 8.42476 6.29199 9 6.29199ZM13.166 6.29199C13.7413 6.29199 14.2079 6.75779 14.208 7.33301C14.208 7.9083 13.7413 8.375 13.166 8.375C12.5908 8.37491 12.125 7.90825 12.125 7.33301C12.1251 6.75784 12.5908 6.29208 13.166 6.29199Z" fill="#343434"/>
</svg>
