<svg width="15" height="15" viewBox="0 0 15 15" fill="none" xmlns="http://www.w3.org/2000/svg">
<g clip-path="url(#clip0_168_2220)">
<path d="M14.3775 0.9375C14.5483 0.9375 14.6948 0.998542 14.8169 1.12062C14.939 1.24271 15 1.38917 15 1.56V13.44C15 13.6108 14.939 13.7573 14.8169 13.8794C14.6948 14.0015 14.5483 14.0625 14.3775 14.0625H4.3725C4.20167 14.0625 4.05521 14.0015 3.93313 13.8794C3.81104 13.7573 3.75 13.6108 3.75 13.44V11.25H0.6225C0.451667 11.25 0.305208 11.189 0.183125 11.0669C0.0610417 10.9448 0 10.7983 0 10.6275V4.3725C0 4.20167 0.0610417 4.05521 0.183125 3.93313C0.305208 3.81104 0.451667 3.75 0.6225 3.75H3.75V1.56C3.75 1.38917 3.81104 1.24271 3.93313 1.12062C4.05521 0.998542 4.20167 0.9375 4.3725 0.9375H14.3775ZM3.77187 7.00187L4.67313 9.96125H5.69812L6.67938 5.03875H5.6475L5.06187 7.94688L4.23375 5.13438H3.3625L2.48375 7.96125L1.8975 5.03937H0.82L1.80125 9.96062H2.82687L3.77187 7.00187ZM14.0625 13.125V11.25H4.6875V13.125H14.0625ZM14.0625 10.3125V7.96875H7.5V10.3125H14.0625ZM14.0625 7.03125V4.6875H7.5V7.03125H14.0625ZM14.0625 3.75V1.875H4.6875V3.75H14.0625Z" fill="black"/>
</g>
<defs>
<clipPath id="clip0_168_2220">
<rect width="15" height="15" fill="white"/>
</clipPath>
</defs>
</svg>
