<svg width="24" height="30" viewBox="0 0 24 30" fill="none" xmlns="http://www.w3.org/2000/svg">
<path d="M22.9993 29.8814H13.051C12.8351 29.8814 12.659 29.7061 12.659 29.4911C12.659 29.2762 12.8351 29.1009 13.051 29.1009H22.6073V0.78125H9.25321L0.784104 6.69259V29.1009H20.3388C20.5563 29.1009 20.7309 29.2762 20.7309 29.4911C20.7309 29.7061 20.5563 29.8814 20.3388 29.8814H0.392052C0.176118 29.8814 0 29.7061 0 29.4911V6.49006C0 6.36354 0.0627915 6.24463 0.166928 6.17146L8.9038 0.0708546C8.96966 0.0251225 9.04776 0.000732422 9.12893 0.000732422H22.9993C23.1035 0.000732422 23.203 0.0418908 23.2765 0.115061C23.35 0.188231 23.3914 0.287316 23.3914 0.390972V29.4911C23.3914 29.5948 23.35 29.6939 23.2765 29.767C23.203 29.8402 23.1035 29.8814 22.9993 29.8814Z" fill="#343434"/>
<path d="M7.93108 8.26419C7.90811 8.26419 7.88361 8.26267 7.86063 8.25809L0.321477 6.87395C0.166801 6.84499 0.0442843 6.72609 0.0105913 6.57365C-0.0231004 6.41969 0.0381582 6.26116 0.166801 6.17124L8.90368 0.070628C9.03232 -0.0193104 9.20384 -0.0238839 9.33709 0.0599574C9.47032 0.142274 9.54077 0.297761 9.51627 0.451718L8.3202 7.93495C8.28957 8.12397 8.1257 8.26421 7.93274 8.26421L7.93108 8.26419ZM1.38421 6.27487L7.6096 7.41663L8.59737 1.23836L1.38421 6.27487Z" fill="#343434"/>
<path d="M11.696 17.3084C10.4142 17.3084 9.2595 16.5401 8.76943 15.3618C8.27784 14.1835 8.5489 12.8268 9.45552 11.9243C10.3621 11.0219 11.7252 10.7521 12.909 11.2399C14.0928 11.7292 14.8646 12.8786 14.8646 14.1545C14.8631 15.8953 13.4449 17.3069 11.696 17.3084ZM11.696 11.7811C10.7312 11.7811 9.86287 12.3588 9.49379 13.246C9.12471 14.1332 9.32839 15.1545 10.0099 15.8329C10.6914 16.5112 11.7175 16.7139 12.6088 16.3466C13.5 15.9792 14.0805 15.1149 14.0805 14.1545C14.079 12.8436 13.0115 11.7826 11.696 11.7811Z" fill="#343434"/>
<path d="M13.0499 22.4838C12.9519 22.4838 12.857 22.4472 12.785 22.3802L11.6946 21.3802L10.6042 22.3802C10.4894 22.4853 10.324 22.5128 10.1816 22.4503C10.0392 22.3878 9.94727 22.2491 9.94727 22.0936V18.3619C9.94727 18.147 10.1219 17.9717 10.3393 17.9717C10.5553 17.9717 10.7314 18.147 10.7314 18.3619V21.2033L11.4297 20.5631H11.4282C11.5782 20.4259 11.811 20.4259 11.9611 20.5631L12.6594 21.2033V18.3619H12.6579C12.6579 18.147 12.834 17.9717 13.05 17.9717C13.2674 17.9717 13.442 18.147 13.442 18.3619V22.0936C13.442 22.1972 13.4007 22.2963 13.3272 22.3695C13.2536 22.4427 13.1541 22.4838 13.0499 22.4838Z" fill="#343434"/>
</svg>
