<svg width="18" height="21" viewBox="0 0 18 21" fill="none" xmlns="http://www.w3.org/2000/svg">
<path d="M2.54523 9.83002V12.3835C2.54523 12.7322 2.42805 13.0749 2.21436 13.3496L1.012 14.8977C0.516683 15.5358 0.428047 16.3837 0.784523 17.1094C1.14003 17.8352 1.8628 18.2863 2.67129 18.2863H6.10305C6.19955 19.8028 7.46002 21.0082 9.00011 21.0082C10.5402 21.0082 11.8006 19.8038 11.8972 18.2863H15.3289C16.1374 18.2863 16.8602 17.8352 17.2157 17.1094C17.5712 16.3827 17.4835 15.5358 16.9882 14.8977L15.7859 13.3496C15.5722 13.0749 15.455 12.7312 15.455 12.3835V9.83002C15.455 6.86102 13.4363 4.35967 10.7018 3.61017C11.0159 3.22808 11.2128 2.74554 11.2128 2.21277C11.2128 0.992649 10.2202 0 9.00012 0C7.78004 0 6.78742 0.992649 6.78742 2.21277C6.78742 2.74554 6.98437 3.22707 7.29849 3.61017C4.56277 4.35959 2.54523 6.86102 2.54523 9.83002ZM9.00009 19.9584C8.03997 19.9584 7.25709 19.2228 7.16256 18.2873H10.8376C10.743 19.2228 9.96022 19.9584 9.00009 19.9584ZM7.83809 2.21277C7.83809 1.57168 8.36 1.05073 9.00009 1.05073C9.64117 1.05073 10.1621 1.57266 10.1621 2.21277C10.1621 2.85386 9.64019 3.37481 9.00009 3.37481C8.35902 3.37481 7.83809 2.85288 7.83809 2.21277ZM9.00009 4.42554C11.9798 4.42554 14.4052 6.85005 14.4052 9.83085V12.3844C14.4052 12.9644 14.6012 13.5366 14.9577 13.9955L16.16 15.5435C16.4111 15.8675 16.4545 16.2811 16.2743 16.6494C16.0941 17.0177 15.7415 17.2383 15.3309 17.2383L2.66997 17.2373C2.25934 17.2373 1.90681 17.0177 1.72659 16.6484C1.54638 16.2801 1.58872 15.8665 1.84082 15.5425L3.04318 13.9945C3.39966 13.5356 3.59562 12.9644 3.59562 12.3834V9.82986C3.59562 6.85002 6.02005 4.42455 9.00076 4.42455L9.00009 4.42554Z" fill="#343434"/>
<path d="M0.404441 8.64111C0.4458 8.65096 0.486175 8.65489 0.526551 8.65489C0.764857 8.65489 0.979538 8.49241 1.03664 8.25113C1.48468 6.36037 2.69395 4.68515 4.35218 3.65532C4.59836 3.50169 4.67417 3.1787 4.52155 2.93249C4.36793 2.68532 4.04396 2.61049 3.79875 2.76311C1.90608 3.93796 0.527327 5.85035 0.0143161 8.00909C-0.0526451 8.29172 0.121653 8.57435 0.40428 8.64131L0.404441 8.64111Z" fill="#8F69FF"/>
<path d="M14.2015 2.76332C13.9553 2.6097 13.6313 2.68651 13.4787 2.9327C13.325 3.17889 13.4018 3.50288 13.648 3.65553C15.3063 4.68559 16.5146 6.36058 16.9636 8.25134C17.0207 8.4926 17.2363 8.6551 17.4737 8.6551C17.514 8.6551 17.5544 8.65018 17.5958 8.64131C17.8774 8.57435 18.0527 8.29074 17.9857 8.0091C17.4727 5.85048 16.094 3.93892 14.2013 2.76312L14.2015 2.76332Z" fill="#8F69FF"/>
</svg>
