<svg width="15" height="15" viewBox="0 0 15 15" fill="none" xmlns="http://www.w3.org/2000/svg">
<g clip-path="url(#clip0_168_2225)">
<path d="M8.4375 0.9375C9.04292 0.9375 9.62521 1.01562 10.1844 1.17188C10.7435 1.32812 11.266 1.54896 11.7519 1.83437C12.2377 2.12021 12.6794 2.46208 13.0769 2.86C13.4752 3.25792 13.8171 3.69979 14.1025 4.18563C14.3883 4.67146 14.6094 5.19396 14.7656 5.75313C14.9219 6.31229 15 6.89458 15 7.5C15 8.10542 14.9219 8.68771 14.7656 9.24687C14.6094 9.80604 14.3885 10.3285 14.1031 10.8144C13.8173 11.3002 13.4754 11.7419 13.0775 12.1394C12.6796 12.5377 12.2377 12.8796 11.7519 13.165C11.266 13.4508 10.7435 13.6719 10.1844 13.8281C9.62521 13.9844 9.04292 14.0625 8.4375 14.0625C7.9 14.0625 7.375 13.999 6.8625 13.8719C6.35 13.7452 5.86312 13.561 5.40187 13.3194C4.94021 13.0777 4.51042 12.7823 4.1125 12.4331C3.71458 12.084 3.36188 11.6896 3.05438 11.25H0.623125C0.451875 11.25 0.305208 11.189 0.183125 11.0669C0.0610417 10.9448 0 10.7983 0 10.6275V4.3725C0 4.20167 0.0610417 4.05521 0.183125 3.93313C0.305208 3.81104 0.451667 3.75 0.6225 3.75H3.05375C3.36167 3.31042 3.71458 2.91604 4.1125 2.56687C4.51042 2.21812 4.94021 1.92271 5.40187 1.68062C5.86312 1.43896 6.35 1.25479 6.8625 1.12812C7.375 1.00104 7.9 0.9375 8.4375 0.9375ZM8.90625 1.89688V7.03125H14.0406C13.9823 6.34792 13.8102 5.70708 13.5244 5.10875C13.2385 4.51042 12.8673 3.98313 12.4106 3.52688C11.9544 3.07021 11.4258 2.69896 10.825 2.41313C10.2246 2.12771 9.585 1.95563 8.90625 1.89688ZM5.6175 6.62812C5.6175 6.34479 5.57 6.10188 5.475 5.89937C5.37958 5.69688 5.24896 5.53229 5.08313 5.40563C4.91688 5.27854 4.72146 5.18563 4.49688 5.12687C4.27229 5.06854 4.02812 5.03937 3.76437 5.03937H1.78V9.95375H2.93V8.24H3.70625C3.94542 8.24 4.17854 8.20458 4.40562 8.13375C4.63271 8.06292 4.83646 7.96021 5.01688 7.82562C5.19771 7.69146 5.34313 7.52437 5.45312 7.32438C5.56271 7.12437 5.6175 6.89229 5.6175 6.62812ZM8.4375 13.125C8.92583 13.125 9.39708 13.0652 9.85125 12.9456C10.3054 12.826 10.7338 12.6552 11.1363 12.4331C11.5392 12.2106 11.9092 11.9444 12.2463 11.6344C12.5829 11.3244 12.8783 10.9777 13.1325 10.5944C13.3867 10.211 13.5917 9.79729 13.7475 9.35312C13.9038 8.90854 14.0015 8.44458 14.0406 7.96125H7.97625V1.89688C7.25333 1.95521 6.57208 2.14438 5.9325 2.46438C5.29292 2.78438 4.73146 3.21292 4.24813 3.75H6.8775C7.04833 3.75 7.19479 3.81104 7.31687 3.93313C7.43896 4.05521 7.5 4.20167 7.5 4.3725V10.6275C7.5 10.7983 7.43896 10.9448 7.31687 11.0669C7.19479 11.189 7.04833 11.25 6.8775 11.25H4.24813C4.51646 11.5479 4.81062 11.8127 5.13062 12.0444C5.45062 12.2765 5.78875 12.4731 6.145 12.6344C6.50125 12.7956 6.87229 12.9177 7.25812 13.0006C7.64437 13.0835 8.0375 13.125 8.4375 13.125ZM3.6325 5.99875C3.87208 5.99875 4.06271 6.04625 4.20438 6.14125C4.34604 6.23667 4.41687 6.41125 4.41687 6.665C4.41687 6.7775 4.39104 6.86917 4.33938 6.94C4.28813 7.01083 4.22354 7.06812 4.14563 7.11187C4.06729 7.15562 3.97937 7.18604 3.88188 7.20312C3.78437 7.22021 3.69167 7.22875 3.60375 7.22875H2.92937V5.99875H3.6325Z" fill="black"/>
</g>
<defs>
<clipPath id="clip0_168_2225">
<rect width="15" height="15" fill="white"/>
</clipPath>
</defs>
</svg>
