<svg width="28" height="32" viewBox="0 0 28 32" fill="none" xmlns="http://www.w3.org/2000/svg">
<path d="M13.7095 0.200195C15.4572 0.200195 16.8802 1.62223 16.8804 3.37012C16.8804 4.13084 16.599 4.82225 16.147 5.37207L15.9507 5.61035L16.2485 5.69238C20.3293 6.81098 23.3413 10.5442 23.3413 14.9736V18.8633C23.3414 19.3652 23.4888 19.862 23.7622 20.2822L23.8872 20.457L25.7183 22.8154C26.4258 23.7271 26.5513 24.9353 26.0435 25.9736C25.5355 27.0105 24.5041 27.6543 23.3491 27.6543H17.9341L17.9224 27.8408C17.7819 30.0483 15.9485 31.7998 13.7095 31.7998C11.4707 31.7997 9.63694 30.0467 9.49658 27.8408L9.48486 27.6543H4.0708C2.91587 27.6543 1.8844 27.0105 1.37646 25.9736C0.867473 24.9373 0.993258 23.7273 1.70068 22.8154L3.53271 20.457C3.88539 20.0034 4.07851 19.4383 4.07861 18.8633V14.9736C4.07861 10.5443 7.0881 6.81104 11.1704 5.69238L11.4683 5.61035L11.2729 5.37207C10.8207 4.82049 10.5396 4.13071 10.5396 3.37012C10.5398 1.62234 11.9619 0.200364 13.7095 0.200195ZM10.7124 27.876C10.8666 29.4 12.1419 30.6005 13.7095 30.6006C15.2772 30.6006 16.5533 29.4001 16.7075 27.876L16.73 27.6553H10.6899L10.7124 27.876ZM13.7104 6.53906C9.06031 6.53923 5.27802 10.3236 5.27783 14.9727V18.8623C5.27783 19.7028 4.99473 20.5304 4.479 21.1943L2.64795 23.5518C2.21698 24.1057 2.14367 24.8178 2.45166 25.4473C2.75981 26.0785 3.36725 26.4561 4.06885 26.4561L23.3521 26.458C24.054 26.458 24.6603 26.0777 24.9683 25.4482C25.2571 24.8578 25.2097 24.1957 24.8491 23.6592L24.7729 23.5537L22.9419 21.1953C22.4262 20.5314 22.1421 19.7033 22.1421 18.8643V14.9746C22.1421 10.4477 18.5576 6.74408 14.0796 6.5498L14.0874 6.53906H13.7104ZM13.7095 1.40039C12.6244 1.40053 11.74 2.28332 11.7397 3.37012C11.7397 4.45538 12.6226 5.34068 13.7095 5.34082C14.7948 5.34082 15.6792 4.45719 15.6792 3.37012C15.679 2.28495 14.7963 1.40039 13.7095 1.40039Z" fill="#343434" stroke="white" stroke-width="0.4"/>
<path d="M0.616001 13.162C0.678993 13.177 0.740489 13.183 0.801984 13.183C1.16495 13.183 1.49192 12.9355 1.57889 12.5679C2.26131 9.68791 4.10313 7.1362 6.62876 5.56754C7.00372 5.33353 7.11919 4.84154 6.88673 4.46652C6.65275 4.09002 6.15932 3.97603 5.78584 4.20852C2.90313 5.99805 0.803167 8.91104 0.0218047 12.1993C-0.0801832 12.6298 0.185288 13.0603 0.615755 13.1623L0.616001 13.162Z" fill="#343434"/>
<path d="M21.6322 4.20883C21.2573 3.97483 20.7638 4.09183 20.5313 4.46684C20.2973 4.84184 20.4143 5.33534 20.7893 5.56786C23.315 7.13686 25.1553 9.68823 25.8392 12.5683C25.9262 12.9358 26.2546 13.1833 26.6161 13.1833C26.6776 13.1833 26.7391 13.1758 26.8021 13.1623C27.231 13.0603 27.498 12.6283 27.396 12.1993C26.6146 8.91124 24.5148 5.99952 21.632 4.20852L21.6322 4.20883Z" fill="#343434"/>
</svg>
