<svg width="20" height="17" viewBox="0 0 20 17" fill="none" xmlns="http://www.w3.org/2000/svg">
<path d="M17.6364 2.7246H13.8729V2.48112C13.8729 1.11395 12.8121 0.0009662 11.5093 0.0009662L8.49169 0C7.18875 0 6.12803 1.11306 6.12803 2.48015V2.72363L2.36366 2.7246C1.06071 2.7246 0 3.83766 0 5.20475V14.5198C0 15.887 1.05986 17 2.36366 17H17.6364C18.9393 17 19.9991 15.8869 19.9991 14.5198L20 5.20475C20 3.83759 18.9402 2.7246 17.6364 2.7246ZM6.83522 2.48015C6.83522 1.52168 7.57831 0.741969 8.49176 0.741969H11.5093C12.4228 0.741969 13.1659 1.52168 13.1659 2.48015V2.72364L6.83536 2.7246L6.83522 2.48015ZM5.75419 4.2937C5.55897 4.2937 5.40059 4.45989 5.40059 4.66472C5.40059 4.86956 5.55897 5.03574 5.75419 5.03574H7.21001C7.40522 5.03574 7.5636 4.86956 7.5636 4.66472C7.5636 4.45989 7.40522 4.2937 7.21001 4.2937H6.83524V3.46662H13.1658V4.2937H12.791C12.5958 4.2937 12.4374 4.45989 12.4374 4.66472C12.4374 4.86956 12.5958 5.03574 12.791 5.03574H14.2468C14.442 5.03574 14.6004 4.86956 14.6004 4.66472C14.6004 4.45989 14.442 4.2937 14.2468 4.2937H13.873V3.46662H16.2376V16.2592H3.76324V3.46662H6.12784V4.2937H5.75419ZM0.707213 14.521V5.20493C0.707213 4.24646 1.4503 3.46675 2.36376 3.46675H3.05621V16.2593H2.36376C1.45122 16.2593 0.707213 15.4795 0.707213 14.521ZM19.2931 14.521C19.2931 15.4795 18.55 16.2592 17.6375 16.2592H16.945V3.46665H17.6375C18.5509 3.46665 19.2931 4.24636 19.2931 5.20483V14.521Z" fill="#8F69FF"/>
</svg>
