<svg width="15" height="15" viewBox="0 0 15 15" fill="none" xmlns="http://www.w3.org/2000/svg">
<path fill-rule="evenodd" clip-rule="evenodd" d="M1.15808 5.14975C1.12561 5.62553 1.125 6.23596 1.125 7.125V7.875C1.125 8.76405 1.12561 9.37448 1.15808 9.85028C1.18985 10.316 1.24834 10.5699 1.32482 10.7545C1.59124 11.3977 2.10226 11.9088 2.74546 12.1752C2.9301 12.2517 3.18407 12.3101 3.64975 12.3419C4.12553 12.3744 4.73596 12.375 5.625 12.375C6.51404 12.375 7.12447 12.3744 7.60028 12.3419C8.06595 12.3101 8.3199 12.2517 8.50455 12.1752C9.14775 11.9087 9.65872 11.3977 9.9252 10.7545C10.0017 10.5699 10.0601 10.316 10.0919 9.85028C10.1244 9.37448 10.125 8.76405 10.125 7.875V7.125C10.125 6.23596 10.1244 5.62553 10.0919 5.14975C10.0601 4.68407 10.0017 4.4301 9.9252 4.24546C9.6588 3.60226 9.14775 3.09124 8.50455 2.82481C8.3199 2.74834 8.06595 2.68985 7.60028 2.65808C7.12447 2.62561 6.51404 2.625 5.625 2.625C4.73596 2.625 4.12553 2.62561 3.64975 2.65808C3.18407 2.68985 2.9301 2.74834 2.74546 2.82481C2.10226 3.09124 1.59124 3.60226 1.32482 4.24546C1.24834 4.4301 1.18985 4.68407 1.15808 5.14975ZM0.285452 3.81493C0 4.50408 0 5.37772 0 7.125V7.875C0 9.62228 0 10.4959 0.285452 11.1851C0.666054 12.1039 1.39608 12.8339 2.31493 13.2146C3.00408 13.5 3.87772 13.5 5.625 13.5C7.37228 13.5 8.24595 13.5 8.93505 13.2146C9.85395 12.8339 10.5839 12.1039 10.9646 11.1851C11.25 10.4959 11.25 9.62228 11.25 7.875V7.125C11.25 5.37772 11.25 4.50408 10.9646 3.81493C10.5839 2.89608 9.85395 2.16605 8.93505 1.78545C8.24595 1.5 7.37228 1.5 5.625 1.5C3.87772 1.5 3.00408 1.5 2.31493 1.78545C1.39608 2.16605 0.666054 2.89608 0.285452 3.81493Z" fill="#212121"/>
<path fill-rule="evenodd" clip-rule="evenodd" d="M13.875 8.38793V6.61202C13.875 5.85738 13.8738 5.37275 13.8404 5.02233C13.8196 4.80488 13.7912 4.71309 13.782 4.68715C13.7252 4.62229 13.6477 4.57899 13.5627 4.56458C13.5358 4.57033 13.4427 4.5943 13.2467 4.69059C12.9307 4.84577 12.5173 5.09871 11.8746 5.49422C11.6463 5.63471 11.5172 5.71472 11.4234 5.78054C11.3657 5.82111 11.3436 5.84118 11.338 5.84678C11.3074 5.88318 11.284 5.92508 11.2691 5.97023C11.2672 5.97796 11.2616 6.00721 11.2573 6.07769C11.2505 6.19207 11.25 6.34397 11.25 6.61202V8.38793C11.25 8.65598 11.2505 8.80785 11.2573 8.92223C11.2616 8.99273 11.2672 9.02198 11.2691 9.0297C11.284 9.07485 11.3074 9.1167 11.338 9.15315C11.3436 9.1587 11.3657 9.1788 11.4234 9.21938C11.5172 9.28523 11.6463 9.36518 11.8746 9.50573C12.5173 9.9012 12.9307 10.1542 13.2467 10.3094C13.4427 10.4057 13.5358 10.4296 13.5627 10.4354C13.6477 10.421 13.7252 10.3776 13.782 10.3127C13.7912 10.2869 13.8196 10.1951 13.8404 9.97755C13.8738 9.62715 13.875 9.1425 13.875 8.38793ZM10.2005 5.61846C10.125 5.84725 10.125 6.10217 10.125 6.61202V8.38793C10.125 8.89778 10.125 9.1527 10.2005 9.38145C10.2605 9.56348 10.3548 9.7323 10.4784 9.87885C10.6337 10.063 10.8508 10.1966 11.285 10.4638C12.5308 11.2305 13.1537 11.6138 13.6671 11.5563C14.0678 11.5114 14.4337 11.3069 14.682 10.9892C15 10.5821 15 9.85073 15 8.38793V6.61202C15 5.14919 15 4.41778 14.682 4.01076C14.4337 3.69297 14.0678 3.48856 13.6671 3.44363C13.1537 3.38611 12.5308 3.76944 11.285 4.53611C10.8508 4.80331 10.6337 4.93691 10.4784 5.12107C10.3548 5.26758 10.2605 5.43643 10.2005 5.61846Z" fill="#212121"/>
</svg>
