<svg width="32" height="32" viewBox="0 0 32 32" fill="none" xmlns="http://www.w3.org/2000/svg">
<path d="M16.001 21.5789C16.5156 21.5791 16.9326 21.9968 16.9326 22.5115C16.9324 23.026 16.5155 23.4429 16.001 23.4431C15.4863 23.4431 15.0686 23.0261 15.0684 22.5115C15.0684 21.9966 15.4861 21.5789 16.001 21.5789Z" fill="black" stroke="white" stroke-width="0.5"/>
<path d="M16 9.25C16.1694 9.25 16.3323 9.31769 16.4521 9.4375C16.5717 9.55724 16.6386 9.71943 16.6387 9.88867V18.5557C16.6386 18.7249 16.5717 18.8871 16.4521 19.0068C16.3323 19.1267 16.1694 19.1943 16 19.1943C15.8306 19.1943 15.6686 19.1266 15.5488 19.0068C15.4291 18.8871 15.3614 18.725 15.3613 18.5557V9.88867C15.3614 9.71931 15.4291 9.55726 15.5488 9.4375C15.6686 9.31774 15.8306 9.25006 16 9.25Z" fill="black" stroke="white" stroke-width="0.5"/>
<path d="M15.8989 0.259766C16.3671 0.259967 16.8262 0.386463 17.229 0.625C17.6315 0.863405 17.9628 1.20518 18.188 1.61523L30.5347 24.335C30.7508 24.7328 30.8599 25.1802 30.8511 25.6328C30.8423 26.0854 30.7162 26.5279 30.4849 26.917C30.2535 27.306 29.9251 27.6287 29.5317 27.8525C29.1382 28.0764 28.6925 28.1943 28.2397 28.1943H3.56982C3.112 28.2046 2.65908 28.0948 2.25732 27.875C1.85565 27.6553 1.51906 27.3333 1.28076 26.9424C1.04246 26.5513 0.911054 26.1043 0.899902 25.6465C0.888758 25.1887 0.998317 24.7362 1.21729 24.334L13.6079 1.61426C13.8334 1.20407 14.165 0.862285 14.5679 0.624023C14.9709 0.385693 15.4307 0.2596 15.8989 0.259766ZM15.8989 1.53711C15.6603 1.537 15.4257 1.6005 15.2202 1.72168C15.0147 1.84296 14.8453 2.01764 14.73 2.22656L14.729 2.22754L2.33936 24.9453L2.13818 25.3145H2.20752C2.1868 25.4152 2.1762 25.5184 2.1792 25.6221C2.1861 25.8576 2.25505 26.087 2.37939 26.2871C2.50382 26.4873 2.67901 26.6512 2.88721 26.7617C3.09254 26.8706 3.323 26.9224 3.55518 26.915V26.917H28.2397C28.471 26.9169 28.6989 26.8566 28.8999 26.7422C29.1009 26.6277 29.2691 26.4625 29.3872 26.2637C29.5053 26.0649 29.5694 25.8386 29.5737 25.6074C29.5781 25.3761 29.5222 25.1475 29.4116 24.9443L17.0679 2.22949L17.0669 2.22754C16.9518 2.01859 16.7829 1.84412 16.5776 1.72266C16.3722 1.60117 16.1376 1.53727 15.8989 1.53711Z" fill="black" stroke="white" stroke-width="0.5"/>
</svg>
